<svg width="24" height="24" viewBox="0 0 24 24" fill="none" xmlns="http://www.w3.org/2000/svg">
<g clip-path="url(#clip0_224_350)">
<path d="M7.00006 19C8.10463 19 9.00006 18.1046 9.00006 17C9.00006 15.8954 8.10463 15 7.00006 15C5.89549 15 5.00006 15.8954 5.00006 17C5.00006 18.1046 5.89549 19 7.00006 19Z" stroke="#0D0D0D" stroke-width="1.5" stroke-linecap="round" stroke-linejoin="round"/>
<path d="M17 19C18.1046 19 19 18.1046 19 17C19 15.8954 18.1046 15 17 15C15.8954 15 15 15.8954 15 17C15 18.1046 15.8954 19 17 19Z" stroke="#0D0D0D" stroke-width="1.5" stroke-linecap="round" stroke-linejoin="round"/>
<path d="M5.00006 17H3.00006V13M2.00006 5H13.0001V17M9.00006 17H15.0001M19.0001 17H21.0001V11M21.0001 11H13.0001M21.0001 11L18.0001 6H13.0001" stroke="#0D0D0D" stroke-width="1.5" stroke-linecap="round" stroke-linejoin="round"/>
<path d="M3 9H7" stroke="#0D0D0D" stroke-width="1.5" stroke-linecap="round" stroke-linejoin="round"/>
</g>
<defs>
<clipPath id="clip0_224_350">
<rect width="24" height="24" fill="white"/>
</clipPath>
</defs>
</svg>
