<svg width="86" height="86" viewBox="0 0 86 86" fill="none" xmlns="http://www.w3.org/2000/svg">
<path fill-rule="evenodd" clip-rule="evenodd" d="M33.4496 29.9302L33.4335 29.9108L33.4173 29.8946L33.4012 29.8817L33.3882 29.872L33.3721 29.8623L33.3591 29.8558L33.3462 29.8526H33.3398H33.3333H33.3268H33.3204L33.3139 29.8558H33.3074L33.301 29.8591L33.2945 29.8623L33.2816 29.872L33.2719 29.8817L33.259 29.8946L33.2493 29.9108L33.2396 29.9302L33.0715 51.3106L33.0876 51.7501L33.1103 51.9538L33.1394 52.1445L33.1814 52.3222L33.2299 52.4903L33.288 52.6454L33.3527 52.7909L33.4303 52.9202L33.5143 53.043L33.6048 53.1529L33.7082 53.2498L33.8181 53.3339L33.9377 53.4082L34.067 53.4696L34.206 53.5213L34.5647 53.6345L35.0592 53.767L36.4652 54.0869L36.4781 54.1096L36.4943 54.1322L36.504 54.1613L36.5169 54.1904L36.5266 54.2259L36.5363 54.2647L36.5525 54.3487L36.5622 54.4489L36.5686 54.5621V54.6881V54.8303L36.5525 55.0986L36.5428 55.2117L36.5298 55.3119L36.5169 55.3992L36.5008 55.4735L36.4846 55.5317L36.4749 55.5543L36.4652 55.5769L30.8963 55.4218L27.5478 55.4994L25.3726 55.5769L25.3403 55.5091L25.3144 55.4315L25.2918 55.3475L25.2724 55.2537L25.253 55.1535L25.2401 55.0469L25.2239 54.8045L25.2207 54.6817L25.2239 54.5685L25.2304 54.4619L25.2401 54.3681L25.2563 54.2841L25.2756 54.2098L25.2886 54.1742L25.3015 54.1419L25.3144 54.1128L25.3306 54.0869L26.7818 53.8542L27.2828 53.7573L27.6319 53.6765L27.8516 53.5957L28.052 53.5052L28.2363 53.405L28.3979 53.2951L28.4754 53.2369L28.5433 53.1787L28.608 53.1173L28.6694 53.0527L28.7243 52.988L28.776 52.9169L28.8245 52.8491L28.8665 52.7747L28.9409 52.6131L29.0087 52.4256L29.0701 52.2123L29.1219 51.9731L29.1671 51.7049L29.2059 51.4108L29.2641 50.7449L29.597 39.077L29.723 27.7194L29.7036 27.3283L29.681 27.1473L29.6487 26.976L29.6067 26.8112L29.5582 26.6593L29.4968 26.5171L29.4289 26.3846L29.3513 26.2585L29.2641 26.1454L29.1671 26.042L29.0637 25.9482L28.9473 25.861L28.8245 25.7866L28.692 25.7187L28.553 25.6638L28.3041 25.6089L27.7676 25.4957L25.8316 25.0982L25.8154 25.0756L25.7993 25.0529L25.7863 25.0238L25.7734 24.9948L25.7637 24.9592L25.754 24.9204L25.7346 24.8332L25.7217 24.733L25.712 24.6198L25.7055 24.4938V24.3516V24.2126L25.712 24.0865L25.7217 23.9766L25.7346 23.8829L25.754 23.8053L25.7637 23.7698L25.7734 23.7407L25.7863 23.7148L25.7993 23.6922L25.8154 23.6761L25.8219 23.6664L25.8316 23.6599L28.6791 23.7375L33.2396 23.8118L33.246 23.8312L33.2654 23.8732L33.343 24.0122L33.6339 24.5164L34.6681 26.2714L37.855 31.6109L41.2002 37.2218L43.1136 40.4992L43.9508 41.9278L44.2513 42.4384L46.4492 46.178L46.8855 46.9343L47.073 47.2866L47.241 47.6324L47.3865 47.975L47.5093 48.3241L47.616 48.6829L47.7 49.0578L47.7517 49.4133L47.784 49.7527L47.797 50.0791L47.7937 50.3959L47.7711 50.7126L47.7291 51.0261L47.6774 51.3429L47.6095 51.6661L47.5675 51.8212L47.5158 51.9731L47.393 52.2802L47.241 52.5743L47.0697 52.8555L46.8823 53.1173L46.6916 53.3533L46.5009 53.5633L46.3199 53.7379L46.2585 53.7831L46.1906 53.8219L46.1163 53.8575L46.0322 53.8898L45.9417 53.9156L45.848 53.9383L45.6476 53.9738L45.4343 53.9964L45.221 54.0094L44.817 54.0158V51.275L44.9883 51.1877L45.1434 51.0843L45.2856 50.9647L45.4117 50.829L45.5216 50.6835L45.6121 50.5252L45.6896 50.3571L45.7446 50.1793L45.7834 49.9951L45.806 49.8044V49.6072L45.7866 49.4069L45.7478 49.2032L45.6896 48.9996L45.6088 48.796L45.5086 48.5924L45.4472 48.4889L45.4117 48.434L42.9068 44.4908L38.8957 38.3401L35.1497 32.6064L33.9312 30.722L33.5854 30.1694L33.4884 30.0078L33.4496 29.9302ZM44.817 54.0191V51.275V54.0191ZM44.6004 26.5979L44.6036 37.3802L43.2882 39.6265L41.9598 37.3802L42.018 26.5979L41.9856 25.6444L41.9695 25.3212L41.9501 25.1014L41.9113 24.7653L41.8854 24.6134L41.8596 24.4744L41.824 24.3451L41.7885 24.232L41.7465 24.1253L41.7012 24.0348L41.6754 23.9928L41.6463 23.9508L41.6139 23.912L41.5784 23.8764L41.5428 23.8409L41.5008 23.8053L41.4556 23.773L41.4103 23.7407L41.3069 23.6825L41.1905 23.6308L41.0613 23.5856L40.9223 23.5468L40.7865 23.5015L40.6411 23.4627L40.4762 23.4207L40.2952 23.3852L39.888 23.3173L39.4226 23.2591L39.4161 23.2527L39.4096 23.2494L39.4 23.2365L39.3903 23.2171L39.3838 23.1977L39.3741 23.1783L39.3676 23.1525L39.3547 23.091L39.345 23.0199L39.3353 22.9359L39.3321 22.8422V22.7355V22.6289L39.3385 22.5319L39.3482 22.4479L39.3612 22.3768L39.3676 22.3444L39.3773 22.3186L39.387 22.2927L39.4 22.2701L39.4096 22.2507L39.4226 22.2345L39.4355 22.2216L39.442 22.2151L39.4517 22.2119L41.2164 22.2636L43.5403 22.3186L45.7187 22.2636L47.3348 22.2119L47.338 22.2151L47.3412 22.2184L47.3445 22.2216L47.3509 22.2281L47.3574 22.2378L47.3639 22.2507L47.3703 22.2636L47.38 22.2798L47.3865 22.2992L47.393 22.3186V23.2591L46.8079 23.3496L46.3264 23.4401L45.9417 23.5274L45.7866 23.5726L45.6573 23.6179L45.5086 23.6664L45.3729 23.7245L45.2533 23.7892L45.1984 23.8247L45.1466 23.8635L45.0949 23.9023L45.0497 23.9443L45.0077 23.9863L44.9689 24.0316L44.9333 24.0801L44.901 24.1286L44.8719 24.1803L44.8493 24.232L44.804 24.3483L44.762 24.4776L44.7265 24.6198L44.6974 24.775L44.6715 24.9463L44.6521 25.1273L44.6295 25.5345L44.6004 26.5979ZM44.6069 54.895L44.6295 55.7353L44.6521 56.1426L44.6715 56.3236L44.6974 56.4949L44.7265 56.65L44.762 56.7922L44.804 56.9215L44.8493 57.0379L44.8719 57.0896L44.901 57.1413L44.9333 57.1898L44.9689 57.2383L45.0077 57.2835L45.0497 57.3255L45.0949 57.3675L45.1466 57.4063L45.1984 57.4451L45.2533 57.4807L45.3729 57.5453L45.5086 57.6035L45.6573 57.652L45.7866 57.6972L45.9417 57.7425L46.3264 57.833L46.8079 57.9202L47.393 58.0107V58.9513L47.3865 58.9707L47.38 58.9901L47.3703 59.0062L47.3639 59.0191L47.3574 59.0321L47.3509 59.045L47.3412 59.0547L47.338 59.0579L47.3348 59.0612L45.7187 59.0062L43.5403 58.9513L41.2164 59.0062L39.4517 59.0612L39.442 59.0547L39.4355 59.0515L39.4226 59.0385L39.4096 59.0191L39.4 58.9997L39.387 58.9771L39.3773 58.9545L39.3676 58.9254L39.3612 58.8931L39.3482 58.822L39.3385 58.7379L39.3321 58.641V58.5343V58.4277L39.3353 58.3339L39.345 58.2499L39.3547 58.1788L39.3676 58.1174L39.3741 58.0915L39.3838 58.0721L39.3903 58.0527L39.4 58.0333L39.4096 58.0204L39.4161 58.0172L39.4226 58.0107L39.888 57.9525L40.2952 57.8847L40.4762 57.8491L40.6411 57.8071L40.7865 57.7683L40.9223 57.7231L41.0613 57.6843L41.1905 57.639L41.3069 57.5873L41.4103 57.5291L41.4556 57.4968L41.5008 57.4645L41.5428 57.4289L41.5784 57.3934L41.6139 57.3578L41.6463 57.3191L41.6754 57.277L41.7012 57.235L41.7465 57.1445L41.7885 57.0379L41.824 56.9247L41.8596 56.7955L41.8854 56.6565L41.9113 56.5046L41.9501 56.1684L41.963 56.0101L41.9792 55.7935L42.005 55.1762L42.0664 48.4211L43.2882 46.178L44.6036 48.4211V54.4554L44.6069 54.895ZM43.6599 40.2568L48.702 31.6529L51.488 26.6431L52.393 24.8299L52.6548 24.2061L52.7292 23.9799L52.7647 23.8118L57.3252 23.7375L60.1727 23.6599L60.1792 23.6664L60.1856 23.6761L60.2018 23.6922L60.2147 23.7148L60.2276 23.7407L60.2373 23.7698L60.247 23.8053L60.2664 23.8829L60.2794 23.9766L60.2891 24.0865L60.2955 24.2126L60.2988 24.3516L60.2955 24.4938L60.2891 24.6198L60.2794 24.733L60.2664 24.8332L60.247 24.9204L60.2373 24.9592L60.2276 24.9948L60.2147 25.0238L60.2018 25.0529L60.1856 25.0756L60.1727 25.0982L58.2334 25.4957L57.6969 25.6089L57.4513 25.6638L57.3091 25.7187L57.1765 25.7866L57.0537 25.861L56.9374 25.9482L56.8339 26.042L56.737 26.1454L56.6497 26.2585L56.5721 26.3846L56.5043 26.5171L56.4461 26.6593L56.3944 26.8112L56.3524 26.976L56.32 27.1473L56.2974 27.3283L56.2812 27.7194L56.4073 39.077L56.7402 50.7449L56.7952 51.4108L56.8339 51.7049L56.8792 51.9731L56.9341 52.2123L56.9923 52.4256L57.0602 52.6131L57.1378 52.7747L57.1765 52.8491L57.225 52.9169L57.2767 52.988L57.3317 53.0527L57.3931 53.1173L57.4577 53.1787L57.5288 53.2369L57.6032 53.2951L57.7648 53.405L57.949 53.5052L58.1494 53.5957L58.3724 53.6765L58.7183 53.7573L59.2192 53.8542L60.6737 54.0869L60.6866 54.1128L60.7028 54.1419L60.7157 54.1742L60.7254 54.2098L60.7448 54.2841L60.7609 54.3681L60.7739 54.4619L60.7803 54.5685V54.6817V54.8045L60.7609 55.0469L60.748 55.1535L60.7286 55.2537L60.7092 55.3475L60.6866 55.4315L60.6607 55.5091L60.6317 55.5769L58.4565 55.4994L55.108 55.4218L49.5391 55.5769L49.5261 55.5543L49.5164 55.5317L49.5003 55.4735L49.4841 55.3992L49.4712 55.3119L49.4583 55.2117L49.4486 55.0986L49.4356 54.8303L49.4324 54.6881V54.5621L49.4389 54.4489L49.4486 54.3487L49.4647 54.2647L49.4744 54.2259L49.4841 54.1904L49.4971 54.1613L49.51 54.1322L49.5229 54.1096L49.5391 54.0869L50.9418 53.767L51.4363 53.6345L51.7983 53.5213L51.9341 53.4696L52.0633 53.4082L52.1829 53.3339L52.2928 53.2498L52.3963 53.1529L52.4868 53.043L52.5708 52.9202L52.6484 52.7909L52.713 52.6454L52.7712 52.4903L52.8197 52.3222L52.8617 52.1445L52.8908 51.9538L52.9134 51.7501L52.9328 51.3106L52.7647 29.9302L52.7518 29.9108L52.7421 29.8946L52.7292 29.8817L52.7195 29.872L52.7065 29.8623L52.7001 29.8591L52.6936 29.8558H52.6871L52.6807 29.8526H52.6742H52.6677H52.6613H52.6548L52.6419 29.8558L52.629 29.8623L52.6128 29.872L52.5999 29.8817L52.5837 29.8946L52.5676 29.9108L52.5546 29.9302L44.8493 42.2833L43.6599 40.2568ZM41.7368 54.0158V51.275L41.5558 51.1813L41.3942 51.0649L41.252 50.9324L41.1291 50.7773L41.0225 50.6092L40.9384 50.4282L40.8738 50.2343L40.8253 50.0307L40.7995 49.8206L40.7962 49.6008L40.8124 49.381L40.8479 49.158L40.9061 48.935L40.9869 48.712L41.0903 48.4954L41.2164 48.2821L42.8809 45.4928L41.6947 43.4727L40.1724 46.0131L39.4484 47.4223L39.2836 47.7843L39.1382 48.1496L39.0186 48.5213L38.9281 48.9026L38.8731 49.2582L38.8408 49.5976L38.8279 49.924L38.8343 50.244L38.857 50.5575L38.8957 50.871L38.9507 51.1877L39.0218 51.511L39.0606 51.6661L39.1123 51.8212L39.2351 52.1251L39.387 52.4224L39.5583 52.7036L39.7426 52.9654L39.9333 53.2013L40.1239 53.4114L40.3082 53.586L40.3631 53.6345L40.431 53.6765L40.5021 53.7217L40.5797 53.7605L40.7542 53.8348L40.9417 53.8963L41.1388 53.948L41.3424 53.9835L41.5428 54.0094L41.7368 54.0158Z" fill="url(#paint0_linear_565_2078)"/>
<path fill-rule="evenodd" clip-rule="evenodd" d="M48.0357 79.9985L48.8082 79.8854L49.5548 79.8111L49.9104 79.7884L50.2497 79.7787L50.5697 79.782L50.8638 79.7981L51.3325 79.866L51.8044 79.9759L52.2698 80.1246L52.7352 80.3056L53.1909 80.5189L53.6337 80.7581L54.0604 81.0231L54.4676 81.3043L54.8425 81.6081L55.1981 81.9216L55.531 82.2416L55.8316 82.5648L56.0998 82.8913L56.3293 83.2145L56.52 83.5344L56.5976 83.6896L56.6655 83.8447L55.9221 84.1065L55.1173 84.3392L54.2705 84.5396L53.3946 84.7109L52.5025 84.8467L51.6137 84.9436L50.741 84.9986L49.9007 85.0147L49.5225 84.9986L49.1411 84.9404L48.7597 84.8434L48.3816 84.7109L48.0066 84.5461L47.6382 84.3522L47.2794 84.1259L46.9336 83.877L46.5974 83.6023L46.2807 83.305L45.9801 82.9914L45.7021 82.6585L45.4468 82.3127L45.2173 81.9539L45.0169 81.5887L44.8456 81.2138L44.7713 81.0554L44.6937 80.9164L44.6129 80.7968L44.5289 80.6902L44.2283 80.3476L44.1701 80.2668L44.1249 80.1795L44.1055 80.1375L44.0926 80.089L44.0796 80.0405L44.0732 79.9856L44.0764 79.8725L44.0958 79.7399L44.1378 79.588L44.2024 79.4135L44.6485 78.376L45.1559 77.29L45.7118 76.2428L45.9995 75.7612L46.2936 75.3217L46.6298 74.895L47.0047 74.4781L47.8547 73.6668L48.792 72.904L49.7811 72.2027L50.7701 71.5724L51.7171 71.0294L52.5768 70.5834L53.3073 70.2505L52.0306 72.9105L51.2711 74.3746L50.3887 75.8873L50.2012 76.1685L49.9944 76.4529L49.7681 76.7341L49.5225 77.0153L49.2607 77.2932L48.986 77.568L48.3913 78.1045L47.7125 78.6507L47.0952 79.0903L46.4585 79.4975L45.7312 79.9371L44.5354 80.6579L45.547 80.4801L48.0357 79.9985ZM56.4069 76.7244L57.0921 76.4723L57.7579 76.2557L58.0779 76.1685L58.3817 76.0909L58.6726 76.0327L58.9441 75.9907L59.3804 75.9616L59.8265 75.9713L60.2789 76.0166L60.7282 76.0941L61.1775 76.1976L61.6203 76.3301L62.0534 76.4884L62.4703 76.6662L62.8614 76.8698L63.2363 77.0864L63.5919 77.3126L63.9183 77.5486L64.2157 77.7942L64.4807 78.0431L64.7069 78.2952L64.8039 78.4212L64.8912 78.5505L64.2577 78.9319L63.5628 79.3004L62.8258 79.6462L62.0566 79.9694L61.268 80.2635L60.4761 80.5254L59.6907 80.7451L58.9279 80.9229L58.5821 80.9811L58.2266 81.0005L57.8646 80.9875L57.4993 80.9423L57.1309 80.8647L56.7624 80.7581L56.4004 80.6223L56.0417 80.4607L55.6926 80.2765L55.3532 80.0696L55.03 79.8401L54.723 79.5945L54.4321 79.3295L54.167 79.0483L53.9214 78.7542L53.7048 78.4471L53.6111 78.3178L53.5174 78.2047L53.4236 78.111L53.3299 78.0302L53.0002 77.7748L52.9356 77.7134L52.8774 77.6455L52.8548 77.6068L52.8322 77.568L52.816 77.5227L52.7999 77.4775L52.7837 77.3708L52.7805 77.248L52.7934 77.1025L52.8225 76.9312L53.0552 75.9034L53.3396 74.8142L53.6725 73.7541L53.8568 73.2596L54.0507 72.8038L54.2866 72.3513L54.5581 71.8989L55.1948 70.9971L55.9221 70.1212L56.7042 69.2938L57.4993 68.5278L58.2686 67.8523L58.9796 67.2802L59.5873 66.8341L58.8665 69.5006L58.4205 70.9809L57.8678 72.5259L57.745 72.82L57.6028 73.1174L57.4412 73.4179L57.2666 73.7185L57.0727 74.0224L56.8658 74.3262L56.4133 74.9306L55.8865 75.5608L55.3985 76.0812L54.8878 76.5725L54.2995 77.1122L53.3331 77.9978L54.222 77.6391L56.4069 76.7244ZM63.7179 73.1303L64.3385 72.7327L64.9493 72.3707L65.2435 72.2124L65.5311 72.0702L65.8026 71.9473L66.0612 71.8471L66.4814 71.7211L66.9209 71.6274L67.367 71.5692L67.8259 71.5433H68.2849L68.7438 71.5756L69.1963 71.6306L69.6391 71.7114L70.0625 71.8213L70.4698 71.9506L70.8576 72.0928L71.2229 72.2512L71.5622 72.4225L71.8693 72.6067L72.1375 72.8038L72.2571 72.904L72.367 73.0107L71.8208 73.5246L71.2132 74.0417L70.557 74.546L69.8686 75.0372L69.1543 75.5027L68.4271 75.9358L67.7031 76.3268L66.992 76.6727L66.6656 76.8052L66.3198 76.9054L65.9642 76.9733L65.5958 77.012L65.2208 77.0185L64.8427 76.9959L64.4613 76.9474L64.0799 76.8698L63.7017 76.7664L63.3333 76.6404L62.9713 76.4917L62.6222 76.3171L62.2893 76.1232L61.9726 75.9099L61.6784 75.6772L61.407 75.4251L61.2906 75.3184L61.1775 75.2312L61.0644 75.16L60.9609 75.1019L60.586 74.9273L60.5117 74.8821L60.4438 74.8271L60.4115 74.7948L60.3856 74.7625L60.3597 74.7237L60.3371 74.6817L60.3145 74.6332L60.2983 74.5815L60.2692 74.4619L60.2531 74.3165L60.2499 74.1419L60.2822 73.0818L60.3533 71.957L60.4729 70.842L60.5569 70.3184L60.6603 69.8271L60.8025 69.3326L60.9835 68.8284L61.4328 67.8038L61.9758 66.7857L62.5802 65.7966L63.2105 64.8723L63.8375 64.0351L64.4193 63.3176L64.9299 62.7455L64.7393 65.5122L64.5841 67.0604L64.3417 68.6958L64.2771 69.0094L64.193 69.3326L64.0961 69.6655L63.9797 70.0016L63.8504 70.341L63.7082 70.6836L63.3818 71.3753L62.9875 72.1089L62.6093 72.7295L62.2053 73.3242L61.7302 73.9868L60.9545 75.0696L61.756 74.5201L63.7179 73.1303ZM69.7749 67.4482L70.3211 67.0087L70.8609 66.6079L71.3748 66.2653L71.6172 66.1231L71.8499 66.0003L72.2345 65.8387L72.6353 65.7061L73.049 65.6059L73.4724 65.5316L73.9023 65.4864L74.3354 65.467L74.762 65.4702L75.1822 65.4993L75.5862 65.5607L75.9805 65.6383L76.3554 65.732L76.7142 65.8387L77.0439 65.9647L77.3477 66.1037L77.616 66.2588L77.7388 66.3429L77.8487 66.4301L77.3833 66.9699L76.8629 67.5129L76.294 68.0559L75.6929 68.5859L75.0691 69.0966L74.4291 69.5782L73.7859 70.0178L73.1524 70.4153L72.8583 70.5737L72.5448 70.703L72.2183 70.8032L71.879 70.8775L71.5267 70.9228L71.1711 70.9422L70.8092 70.9357L70.4472 70.9034L70.0852 70.8484L69.7296 70.7676L69.3773 70.6642L69.038 70.5381L68.7083 70.3927L68.3915 70.2246L68.0974 70.0372L67.8195 69.8303L67.6999 69.743L67.5867 69.6719L67.4768 69.617L67.3734 69.575L67.0114 69.4522L66.9339 69.4166L66.866 69.3714L66.8369 69.3455L66.8046 69.3164L66.7787 69.2841L66.7529 69.2453L66.7302 69.2033L66.7076 69.158L66.6721 69.0481L66.6462 68.9124L66.6268 68.7508L66.5622 67.7553L66.5266 66.6952L66.5395 65.6447L66.5719 65.147L66.6236 64.6783L66.7141 64.2L66.8369 63.7087L67.1666 62.7067L67.5835 61.6951L68.0619 60.7093L68.5693 59.7785L69.0767 58.9316L69.5583 58.198L69.985 57.6097L70.0528 60.218L70.0464 61.6822L69.9623 63.2368L69.93 63.5374L69.8815 63.8477L69.8201 64.1677L69.7426 64.4909L69.6521 64.8238L69.5486 65.1599L69.3062 65.8419L69.0024 66.5691L68.705 67.1864L68.3786 67.7844L67.994 68.4534L67.367 69.5459L68.0651 68.9479L68.9184 68.1949L69.345 67.8167L69.7749 67.4482ZM74.9592 60.6738L75.3955 60.1114L75.8318 59.5845L76.2617 59.1223L76.4653 58.922L76.6657 58.7442L77.0051 58.4888L77.3671 58.2594L77.7485 58.0557L78.146 57.878L78.5533 57.7261L78.967 57.6L79.3839 57.4966L79.8009 57.419L80.2081 57.3738L80.6057 57.3479L80.9903 57.3447L81.362 57.3608L81.711 57.3996L82.0343 57.461L82.1862 57.4998L82.3316 57.5451L82.4674 57.5936L82.5934 57.6517L82.2573 58.2917L81.8662 58.9543L81.4298 59.6233L80.9612 60.2891L80.4602 60.942L79.9431 61.5723L79.413 62.1638L78.8829 62.71L78.6308 62.9395L78.3529 63.1431L78.0555 63.3241L77.742 63.4792L77.4091 63.6117L77.0665 63.7216L76.7142 63.8057L76.3554 63.8671L75.9902 63.9026L75.625 63.9156L75.263 63.9026L74.9042 63.8671L74.5519 63.8089L74.2126 63.7249L73.8829 63.6182L73.5694 63.4857L73.4369 63.4307L73.3108 63.392L73.1912 63.3661L73.0813 63.3499L72.6999 63.3208L72.6191 63.3047L72.5448 63.2788L72.5092 63.2627L72.4737 63.24L72.4381 63.2174L72.4058 63.1851L72.3735 63.1528L72.3444 63.1108L72.2862 63.0138L72.228 62.891L72.1763 62.7358L71.8984 61.7856L71.6366 60.7643L71.4232 59.7364L71.3489 59.2419L71.3004 58.7733L71.2843 58.2852L71.2972 57.7778L71.4006 56.7209L71.5913 55.6317L71.8434 54.5554L72.1343 53.5211L72.4478 52.5676L72.7581 51.7337L73.0458 51.055L73.6728 53.576L73.9798 55.0014L74.2352 56.5334L74.2675 56.834L74.2901 57.1475L74.2966 57.474L74.2901 57.8101L74.2449 58.505L74.1576 59.229L74.0186 60.0112L73.8603 60.6899L73.6728 61.3525L73.4433 62.0991L73.0684 63.3241L73.6211 62.5645L74.9592 60.6738ZM78.3884 51.9923L78.6729 51.3233L78.967 50.693L79.2676 50.1209L79.4163 49.8688L79.5649 49.6426L79.83 49.3L80.1241 48.9768L80.4408 48.6729L80.7802 48.3885L81.1357 48.1235L81.5042 47.8843L81.8823 47.6645L82.267 47.4706L82.6484 47.3122L83.0265 47.1732L83.3982 47.0601L83.757 46.9696L84.1028 46.905L84.4325 46.8727L84.5876 46.8662H84.7363L84.8817 46.8759L85.0175 46.8953L84.8494 47.6096L84.6329 48.3594L84.3775 49.1287L84.0834 49.9076L83.7602 50.6801L83.4144 51.4364L83.0491 52.1572L82.6677 52.8359L82.4803 53.13L82.2637 53.4047L82.0213 53.6633L81.7563 53.9057L81.4686 54.1255L81.1648 54.3291L80.8448 54.5101L80.5152 54.6717L80.1726 54.8107L79.8235 54.9271L79.4712 55.0208L79.1157 55.0887L78.7634 55.1307L78.4143 55.1469L78.0685 55.1372L77.7355 55.1016L77.5933 55.0854H77.4608L77.3412 55.0919L77.2313 55.1081L76.8564 55.1889L76.7756 55.1986L76.6948 55.1953L76.656 55.1889L76.6172 55.1792L76.5785 55.163L76.5397 55.1469L76.5009 55.121L76.4621 55.0919L76.3813 55.0143L76.2973 54.9109L76.21 54.7784L75.7123 53.9413L75.208 53.0298L74.7523 52.099L74.5584 51.6465L74.3968 51.2069L74.2643 50.7415L74.1511 50.247L73.9928 49.1965L73.912 48.0912L73.8926 46.9793L73.9217 45.8998L73.9928 44.8914L74.0865 43.9961L74.1996 43.2592L75.4181 45.5152L76.0613 46.7983L76.6819 48.2043L76.7885 48.4855L76.8823 48.7828L76.9695 49.0931L77.0471 49.4196L77.115 49.7589L77.1732 50.1048L77.2637 50.8288L77.3218 51.6239L77.3348 52.322L77.3154 53.0169L77.2766 53.8023L77.212 55.0887L77.5578 54.1998L78.3884 51.9923ZM79.6393 42.1473L79.7265 41.4201L79.8397 40.722L79.9689 40.082L80.0433 39.7943L80.1241 39.5293L80.2857 39.1188L80.4764 38.7148L80.6994 38.3205L80.9483 37.9423L81.2165 37.5771L81.5042 37.2281L81.8048 36.9016L82.1183 36.5946L82.4383 36.3231L82.7647 36.071L83.0879 35.8415L83.4111 35.6411L83.7246 35.473L84.0285 35.334L84.3194 35.2338L84.4583 35.1983L84.5941 35.1724L84.6264 35.9094L84.6232 36.6948L84.5876 37.5125L84.5197 38.3496L84.4195 39.1899L84.2935 40.0206L84.1384 40.8254L83.9574 41.5946L83.8572 41.934L83.7246 42.2669L83.563 42.5933L83.3756 42.9101L83.1623 43.2139L82.9263 43.5048L82.671 43.7795L82.3962 44.0381L82.1054 44.2805L81.8048 44.5003L81.4913 44.7039L81.1713 44.8817L80.8448 45.0336L80.5152 45.1596L80.1823 45.2598L79.8526 45.3309L79.7136 45.36L79.5875 45.4021L79.4744 45.4473L79.371 45.499L79.0381 45.6929L78.9605 45.7285L78.8862 45.7479L78.8474 45.7543L78.8086 45.7576H78.7666L78.7246 45.7511L78.6793 45.7382L78.6341 45.7253L78.5371 45.6768L78.4272 45.6024L78.3076 45.5055L77.603 44.8623L76.8758 44.1512L76.5235 43.7828L76.1874 43.4078L75.8803 43.0329L75.6056 42.6645L75.3503 42.2604L75.1111 41.8241L74.678 40.8674L74.2998 39.8396L73.9798 38.7827L73.7148 37.7387L73.5112 36.7529L73.3625 35.8673L73.2688 35.1272L75.0432 36.8984L76.0064 37.9197L76.9792 39.0671L77.157 39.2998L77.3283 39.5552L77.4964 39.8267L77.658 40.1143L77.8164 40.4149L77.965 40.7317L78.2462 41.3942L78.5177 42.1344L78.7181 42.8002L78.8894 43.4692L79.0639 44.232L79.3516 45.4829L79.4421 44.5261L79.6393 42.1473ZM78.6826 32.3573L78.5856 31.63L78.5177 30.9254L78.4854 30.2726V29.972L78.4951 29.694L78.5468 29.2512L78.6308 28.8084L78.7472 28.3656L78.8894 27.9261L79.0575 27.4962L79.2482 27.076L79.455 26.672L79.678 26.2841L79.9205 25.9254L80.1693 25.5892L80.4247 25.2757L80.6832 24.9881L80.9418 24.7327L81.2004 24.5097L81.4557 24.3287L81.5818 24.2544L81.7046 24.1897L81.9211 24.8879L82.1151 25.6442L82.2831 26.4425L82.4286 27.2667L82.5449 28.1038L82.629 28.9409L82.6839 29.7651L82.7033 30.557L82.6936 30.9125L82.6484 31.2713L82.574 31.63L82.4738 31.9888L82.3445 32.3443L82.1894 32.6934L82.0116 33.0328L81.8112 33.3625L81.5947 33.6792L81.3587 33.983L81.1099 34.2674L80.8448 34.5325L80.5669 34.7749L80.2825 34.9947L79.9883 35.1886L79.6877 35.3534L79.5617 35.4245L79.4486 35.4989L79.3548 35.5797L79.2676 35.6572L78.9961 35.9449L78.9314 35.9999L78.8636 36.0419L78.8248 36.058L78.7892 36.0742L78.7472 36.0839L78.7052 36.0904L78.6599 36.0936L78.6115 36.0904L78.5048 36.0742L78.3852 36.0354L78.243 35.974L77.4059 35.5635L76.5267 35.0916L76.0969 34.8395L75.6799 34.5777L75.2888 34.3095L74.9333 34.0347L74.5875 33.7212L74.2481 33.3722L73.5888 32.5803L72.9682 31.7012L72.3929 30.78L71.879 29.8524L71.4329 28.9636L71.0677 28.1555L70.793 27.4703L72.9423 28.6533L74.1285 29.3546L74.7362 29.7457L75.3535 30.1724L75.583 30.3469L75.8092 30.5408L76.0387 30.7509L76.2682 30.9804L76.4944 31.226L76.7174 31.4846L77.157 32.0405L77.603 32.674L77.9618 33.2526L78.2915 33.8473L78.6535 34.5292L79.2417 35.6508L79.0898 34.7005L78.6826 32.3573ZM74.8881 22.7935L74.6457 22.1664L74.4356 21.5523L74.2643 20.9738L74.1996 20.7055L74.1479 20.4534L74.0994 20.0429L74.08 19.6228L74.0897 19.1961L74.1221 18.7695L74.1802 18.3396L74.261 17.9162L74.3612 17.5025L74.4776 17.0985L74.6166 16.7171L74.7685 16.3519L74.9301 16.006L75.0982 15.6861L75.2759 15.3887L75.4602 15.1269L75.6508 14.8974L75.7478 14.8005L75.8448 14.71L76.1874 15.2821L76.5235 15.9123L76.8467 16.5846L77.1538 17.2892L77.4382 18.0132L77.6935 18.7404L77.9198 19.4644L78.1072 20.169L78.1751 20.4922L78.2107 20.8251L78.2236 21.1645L78.2074 21.5136L78.1687 21.8626L78.104 22.2149L78.0167 22.564L77.9101 22.9098L77.784 23.2492L77.6354 23.5789L77.4738 23.8988L77.2928 24.2027L77.0988 24.4903L76.8887 24.7586L76.6657 25.0042L76.433 25.2272L76.3328 25.3242L76.252 25.4179L76.1809 25.5117L76.1227 25.6054L75.9385 25.9318L75.8932 25.9965L75.8415 26.0547L75.8124 26.0773L75.7801 26.0999L75.7478 26.1193L75.7123 26.1355L75.6702 26.1484L75.6282 26.1581L75.528 26.171L75.4117 26.1678L75.2727 26.1484L74.4323 25.99L73.5435 25.7896L73.1007 25.67L72.6708 25.5408L72.2636 25.3985L71.8854 25.2434L71.5073 25.0495L71.1291 24.82L70.3696 24.277L69.623 23.6467L68.9119 22.9615L68.2526 22.2602L67.6611 21.575L67.1601 20.9447L66.7658 20.3985L68.9475 20.9156L70.1595 21.2485L70.7898 21.4457L71.4329 21.6719L71.6754 21.7721L71.9242 21.8885L72.1731 22.021L72.4284 22.1664L72.6805 22.328L72.9391 22.5058L73.1944 22.6933L73.4498 22.8937L73.9863 23.3494L74.4323 23.7793L74.859 24.2285L75.3276 24.7489L76.0969 25.6054L75.7575 24.7909L74.8881 22.7935ZM69.5001 15.2562L69.0832 14.7455L68.7018 14.2381L68.3721 13.75L68.2299 13.5173L68.1103 13.2943L67.9423 12.9226L67.8001 12.5348L67.6805 12.1275L67.5867 11.7073L67.5156 11.2839L67.4639 10.8541L67.4348 10.4274L67.4284 10.004L67.4478 9.59354L67.4833 9.19599L67.5318 8.81137L67.5997 8.44938L67.6805 8.10677L67.7774 7.79326L67.8873 7.51207L67.952 7.38602L68.0166 7.26643L68.5111 7.68983L69.0153 8.16818L69.5228 8.69502L70.0205 9.25417L70.5021 9.84242L70.9611 10.4436L71.3877 11.0512L71.7756 11.6556L71.9339 11.9368L72.0664 12.2406L72.1796 12.5606L72.2668 12.8935L72.3315 13.2394L72.3767 13.5949L72.3961 13.9537L72.3993 14.3189L72.3767 14.6841L72.3379 15.0493L72.2765 15.4081L72.1957 15.7572L72.0955 16.0965L71.9759 16.423L71.8402 16.7365L71.6851 17.0274L71.6204 17.1534L71.5687 17.273L71.5299 17.3862L71.5008 17.4928L71.4232 17.8645L71.4006 17.9421L71.3683 18.0132L71.3489 18.0455L71.3263 18.0778L71.3004 18.1069L71.2681 18.136L71.2358 18.1619L71.197 18.1877L71.1065 18.233L70.9934 18.2685L70.8576 18.3008L70.0141 18.4431L69.1123 18.5594L68.6598 18.6014L68.2138 18.6273L67.7871 18.6337L67.3831 18.6176L66.9694 18.5659L66.5395 18.4786L65.6604 18.2265L64.7651 17.8871L63.8892 17.4863L63.0553 17.05L62.2925 16.6072L61.63 16.1806L61.0967 15.8024L63.3171 15.5374L64.5647 15.4307L65.2208 15.4016L65.8963 15.3919L66.1549 15.4016L66.4232 15.4243L66.7011 15.463L66.9856 15.5148L67.2765 15.5826L67.5706 15.6602L67.8679 15.7507L68.1685 15.8509L68.8117 16.0965L69.3612 16.3454L69.8977 16.6266L70.4989 16.9563L71.4782 17.4993L70.9158 16.8464L69.5001 15.2562ZM63.2848 10.3725L62.8291 9.99432L62.4057 9.6097L62.0308 9.23155L61.8659 9.05055L61.7205 8.87278L61.5104 8.5722L61.3229 8.24899L61.1516 7.90638L60.9997 7.54762L60.8672 7.17916L60.7541 6.80424L60.6603 6.42608L60.586 6.04792L60.5375 5.67623L60.5052 5.311L60.489 4.9587V4.61933L60.5084 4.29935L60.544 3.99877L60.6022 3.72404L60.6345 3.60122L60.6765 3.48163L61.1872 3.76929L61.7172 4.10543L62.257 4.48358L62.7935 4.89083L63.3204 5.32716L63.8278 5.78289L64.3094 6.24831L64.7522 6.71697L64.9396 6.93998L65.1077 7.18562L65.2596 7.45389L65.3921 7.73508L65.5053 8.03567L65.599 8.34595L65.6766 8.66593L65.738 8.99237L65.7768 9.32205L65.7962 9.65819L65.7994 9.99109L65.7832 10.3208L65.7477 10.644L65.6927 10.9607L65.6216 11.2645L65.5279 11.5554L65.4891 11.6783L65.4632 11.7978L65.4471 11.9045L65.4374 12.0079L65.4277 12.357L65.418 12.4313L65.4018 12.4992L65.3889 12.5348L65.3727 12.5671L65.3534 12.5994L65.334 12.6285L65.3049 12.6608L65.2758 12.6899L65.2014 12.7448L65.1077 12.7998L64.9881 12.8547L64.2544 13.1392L63.4658 13.4139L63.065 13.5367L62.6707 13.6434L62.2861 13.7274L61.9209 13.7888L61.5395 13.8179L61.1419 13.8211L60.3113 13.7597L59.4548 13.6207L58.6047 13.4268L57.787 13.1909L57.0307 12.9355L56.3681 12.677L55.8283 12.4378L57.7805 11.7849L58.8827 11.4552L59.4677 11.3033L60.0721 11.1708L60.3048 11.132L60.5504 11.1029L60.8058 11.0868L61.0676 11.0803L61.3391 11.0835L61.617 11.0997L61.8982 11.1223L62.1859 11.1579L62.8032 11.2581L63.3365 11.3809L63.8601 11.5296L64.4516 11.717L65.418 12.0209L64.8071 11.5393L63.2848 10.3725ZM56.5717 6.8204L56.1871 6.49719L55.8283 6.17074L55.5084 5.85076L55.3694 5.69562L55.2466 5.54695L55.0688 5.29161L54.9072 5.01688L54.7617 4.72922L54.6357 4.42541L54.5226 4.11189L54.4256 3.79191L54.3448 3.47193L54.2834 3.15196L54.2446 2.83844L54.2155 2.52816L54.2026 2.23081V1.94315L54.2187 1.67165L54.2511 1.41631L54.2963 1.18684L54.3254 1.08018L54.361 0.97998L54.7941 1.22239L55.2433 1.50681L55.6991 1.82679L56.1548 2.17263L56.6008 2.54432L57.0307 2.92894L57.4379 3.32326L57.8129 3.72081L57.9712 3.9115L58.1134 4.11836L58.2427 4.3446L58.3558 4.58378L58.4528 4.83588L58.5336 5.09768L58.5983 5.36918L58.6467 5.64714L58.6823 5.92834L58.7017 6.21276V6.49395L58.6888 6.77515L58.6597 7.04988L58.6144 7.31814L58.5498 7.57671L58.4722 7.82235L58.4399 7.92901L58.4173 8.02597L58.4043 8.1197L58.3979 8.20374L58.3882 8.50109L58.3817 8.5625L58.3655 8.62391L58.3558 8.64977L58.3429 8.67886L58.3268 8.70471L58.3074 8.73057L58.2847 8.75643L58.2589 8.78229L58.1975 8.83077L58.1167 8.87602L58.0165 8.92127L57.3927 9.16367L56.7236 9.39639L56.3843 9.49981L56.0481 9.58708L55.7249 9.66142L55.4146 9.71313L55.0914 9.73899L54.7553 9.74222L54.0507 9.69051L53.3267 9.57092L52.6027 9.40608L51.911 9.20569L51.2711 8.98914L50.7119 8.76936L50.253 8.56573L51.9046 8.01304L52.8386 7.73508L53.3331 7.6058L53.8471 7.49267L54.0442 7.46035L54.2543 7.4345L54.4709 7.42157L54.6939 7.4151L54.9233 7.42157L55.1561 7.4345L55.6376 7.48298L56.1612 7.56701L56.3907 7.61873L56.6137 7.67367L57.0598 7.79973L57.5607 7.9581L58.3785 8.21343L57.8613 7.80619L56.5717 6.8204ZM37.9548 79.9985L37.1823 79.8854L36.4357 79.8111L36.0802 79.7884L35.7408 79.7787L35.424 79.782L35.1267 79.7981L34.658 79.866L34.1894 79.9759L33.7207 80.1246L33.2585 80.3056L32.8028 80.5189L32.36 80.7581L31.9334 81.0231L31.5261 81.3043L31.1512 81.6081L30.7957 81.9216L30.4628 82.2416L30.1622 82.5648L29.8939 82.8913L29.6612 83.2145L29.4705 83.5344L29.3929 83.6896L29.3251 83.8447L30.0684 84.1065L30.8732 84.3392L31.7233 84.5396L32.5992 84.7109L33.4912 84.8467L34.3801 84.9436L35.2527 84.9986L36.0931 85.0147L36.4713 84.9986L36.8494 84.9404L37.2308 84.8434L37.6122 84.7109L37.9839 84.5461L38.3523 84.3522L38.7143 84.1259L39.0602 83.877L39.3931 83.6023L39.7131 83.305L40.0104 82.9914L40.2916 82.6585L40.5469 82.3127L40.7764 81.9539L40.9768 81.5887L41.1481 81.2138L41.2224 81.0554L41.3 80.9164L41.3808 80.7968L41.4649 80.6902L41.7654 80.3476L41.8236 80.2668L41.8689 80.1795L41.885 80.1375L41.9012 80.089L41.9109 80.0405L41.9174 79.9856V79.8725L41.898 79.7399L41.8559 79.588L41.7913 79.4135L41.3453 78.376L40.8346 77.29L40.2787 76.2428L39.991 75.7612L39.6969 75.3217L39.3608 74.895L38.9858 74.4781L38.139 73.6668L37.1985 72.904L36.2127 72.2027L35.2237 71.5724L34.2767 71.0294L33.4137 70.5834L32.6832 70.2505L33.9599 72.9105L34.7195 74.3746L35.6018 75.8873L35.7893 76.1685L35.9961 76.4529L36.2256 76.7341L36.4713 77.0153L36.7331 77.2932L37.0078 77.568L37.6025 78.1045L38.2812 78.6507L38.8986 79.0903L39.5353 79.4975L40.2625 79.9371L41.4552 80.6579L40.4467 80.4801L37.9548 79.9985ZM29.5869 76.7244L28.9017 76.4723L28.2358 76.2557L27.9159 76.1685L27.612 76.0909L27.3212 76.0327L27.0497 75.9907L26.6101 75.9616L26.1641 75.9713L25.7148 76.0166L25.2623 76.0941L24.813 76.1976L24.3702 76.3301L23.9404 76.4884L23.5234 76.6662L23.1323 76.8698L22.7542 77.0864L22.4019 77.3126L22.0755 77.5486L21.7749 77.7942L21.5131 78.0431L21.2868 78.2952L21.1899 78.4212L21.1026 78.5505L21.7361 78.9319L22.4277 79.3004L23.1679 79.6462L23.9371 79.9694L24.7225 80.2635L25.5176 80.5254L26.2998 80.7451L27.0626 80.9229L27.4084 80.9811L27.764 81.0005L28.126 80.9875L28.4944 80.9423L28.8596 80.8647L29.2281 80.7581L29.5933 80.6223L29.9489 80.4607L30.2979 80.2765L30.6373 80.0696L30.9605 79.8401L31.2708 79.5945L31.5585 79.3295L31.8267 79.0483L32.0724 78.7542L32.2889 78.4471L32.3826 78.3178L32.4764 78.2047L32.5701 78.111L32.6638 78.0302L32.9935 77.7748L33.0581 77.7134L33.1163 77.6455L33.139 77.6068L33.1616 77.568L33.1777 77.5227L33.1939 77.4775L33.2101 77.3708L33.2133 77.248L33.2004 77.1025L33.1713 76.9312L32.9353 75.9034L32.6509 74.8142L32.3212 73.7541L32.137 73.2596L31.9431 72.8038L31.7071 72.3513L31.4356 71.8989L30.7989 70.9971L30.0717 70.1212L29.2895 69.2938L28.4944 68.5278L27.7219 67.8523L27.0109 67.2802L26.4032 66.8341L27.1272 69.5006L27.5733 70.9809L28.126 72.5259L28.2488 72.82L28.391 73.1174L28.5526 73.4179L28.7271 73.7185L28.9211 74.0224L29.1279 74.3262L29.5804 74.9306L30.104 75.5608L30.5953 76.0812L31.106 76.5725L31.6942 77.1122L32.6606 77.9978L31.7718 77.6391L29.5869 76.7244ZM22.2758 73.1303L21.6553 72.7327L21.0412 72.3707L20.7471 72.2124L20.4626 72.0702L20.1911 71.9473L19.9326 71.8471L19.5092 71.7211L19.0728 71.6274L18.6236 71.5692L18.1678 71.5433H17.7089L17.2499 71.5756L16.7974 71.6306L16.3546 71.7114L15.9312 71.8213L15.524 71.9506L15.1361 72.0928L14.7677 72.2512L14.4315 72.4225L14.1245 72.6067L13.8562 72.8038L13.7366 72.904L13.6267 73.0107L14.1729 73.5246L14.7806 74.0417L15.4335 74.546L16.1251 75.0372L16.8394 75.5027L17.5634 75.9358L18.2874 76.3268L18.9985 76.6727L19.3249 76.8052L19.6708 76.9054L20.0263 76.9733L20.3948 77.012L20.7697 77.0185L21.1478 76.9959L21.5292 76.9474L21.9106 76.8698L22.2888 76.7664L22.6605 76.6404L23.0192 76.4917L23.3683 76.3171L23.7044 76.1232L24.0179 75.9099L24.3153 75.6772L24.5868 75.4251L24.7032 75.3184L24.8163 75.2312L24.9262 75.16L25.0328 75.1019L25.4045 74.9273L25.4821 74.8821L25.55 74.8271L25.5791 74.7948L25.6081 74.7625L25.634 74.7237L25.6566 74.6817L25.676 74.6332L25.6954 74.5815L25.7213 74.4619L25.7374 74.3165L25.7407 74.1419L25.7083 73.0818L25.6405 71.957L25.5209 70.842L25.4368 70.3184L25.3334 69.8271L25.1912 69.3326L25.0102 68.8284L24.5609 67.8038L24.0179 66.7857L23.4103 65.7966L22.7801 64.8723L22.1563 64.0351L21.5712 63.3176L21.0606 62.7455L21.2545 65.5122L21.4096 67.0604L21.652 68.6958L21.7167 69.0094L21.8007 69.3326L21.8977 69.6655L22.014 70.0016L22.1433 70.341L22.2855 70.6836L22.612 71.3753L23.0063 72.1089L23.3845 72.7295L23.7885 73.3242L24.2604 73.9868L25.0361 75.0696L24.2377 74.5201L22.2758 73.1303ZM16.2156 67.4482L15.6694 67.0087L15.1329 66.6079L14.8711 66.4269L14.6157 66.2653L14.3733 66.1231L14.1406 66.0003L13.7592 65.8387L13.3585 65.7061L12.9447 65.6059L12.5181 65.5316L12.0882 65.4864L11.6584 65.467L11.2285 65.4702L10.8083 65.4993L10.4043 65.5607L10.0132 65.6383L9.63507 65.732L9.27954 65.8387L8.94663 65.9647L8.64282 66.1037L8.37455 66.2588L8.25173 66.3429L8.14184 66.4301L8.60726 66.9699L9.12763 67.5129L9.69648 68.0559L10.2977 68.5859L10.9247 69.0966L11.5646 69.5782L12.2046 70.0178L12.8413 70.4153L13.1354 70.5737L13.449 70.703L13.7754 70.8032L14.1148 70.8775L14.4638 70.9228L14.8226 70.9422L15.1814 70.9357L15.5466 70.9034L15.9054 70.8484L16.2641 70.7676L16.6164 70.6642L16.9558 70.5381L17.2855 70.3927L17.6022 70.2246L17.8963 70.0372L18.1743 69.8303L18.2939 69.743L18.407 69.6719L18.5169 69.617L18.6203 69.575L18.9856 69.4522L19.0599 69.4166L19.1278 69.3714L19.1569 69.3455L19.1892 69.3164L19.215 69.2841L19.2409 69.2453L19.2635 69.2033L19.2861 69.158L19.3217 69.0481L19.3476 68.9124L19.3669 68.7508L19.4316 67.7553L19.4671 66.6952L19.4542 65.6447L19.4219 65.147L19.3702 64.6783L19.2797 64.2L19.1569 63.7087L18.8272 62.7067L18.4102 61.6951L17.9319 60.7093L17.4244 59.7785L16.9138 58.9316L16.4322 58.198L16.0056 57.6097L15.9409 60.218L15.9474 61.6822L16.0282 63.2368L16.0605 63.5374L16.109 63.8477L16.1704 64.1677L16.248 64.4909L16.3385 64.8238L16.4451 65.1599L16.6875 65.8419L16.9913 66.5691L17.2887 67.1864L17.6151 67.7844L17.9965 68.4534L18.6268 69.5459L17.9287 68.9479L16.2156 67.4482ZM11.0313 60.6738L10.595 60.1114L10.1587 59.5845L9.73204 59.1223L9.52518 58.922L9.32802 58.7442L8.98865 58.4888L8.62666 58.2594L8.24527 58.0557L7.84772 57.878L7.44047 57.7261L7.02676 57.6L6.60982 57.4966L6.19288 57.419L5.78563 57.3738L5.38809 57.3479L5.00023 57.3447L4.63177 57.3608L4.2827 57.3996L3.95949 57.461L3.80759 57.4998L3.66214 57.5451L3.52639 57.5936L3.40034 57.6517L3.73648 58.2917L4.12756 58.9543L4.56067 59.6233L5.03255 60.2891L5.5303 60.942L6.04743 61.5723L6.5775 62.1638L7.1108 62.71L7.3629 62.9395L7.63763 63.1431L7.93499 63.3241L8.25173 63.4792L8.58141 63.6117L8.92401 63.7216L9.27631 63.8057L9.6383 63.8671L10.0003 63.9026L10.3655 63.9156L10.7275 63.9026L11.0863 63.8671L11.4386 63.8089L11.7812 63.7249L12.1109 63.6182L12.4244 63.4857L12.5569 63.4307L12.6829 63.392L12.8025 63.3661L12.9124 63.3499L13.2938 63.3208L13.3746 63.3047L13.449 63.2788L13.4845 63.2627L13.5201 63.24L13.5556 63.2174L13.5879 63.1851L13.6203 63.1528L13.6493 63.1108L13.7075 63.0138L13.7657 62.891L13.8174 62.7358L14.0921 61.7856L14.3539 60.7643L14.5673 59.7364L14.6448 59.2419L14.6933 58.7733L14.7095 58.2852L14.6966 57.7778L14.5899 56.7209L14.4024 55.6317L14.1503 54.5554L13.8562 53.5211L13.5427 52.5676L13.2324 51.7337L12.9447 51.055L12.321 53.576L12.0107 55.0014L11.7553 56.5334L11.723 56.834L11.7036 57.1475L11.6939 57.474L11.7004 57.8101L11.7165 58.1527L11.7456 58.505L11.8361 59.229L11.9751 60.0112L12.1335 60.6899L12.321 61.3525L12.5504 62.0991L12.9254 63.3241L12.3727 62.5645L11.0313 60.6738ZM7.60208 51.9923L7.32088 51.3233L7.02676 50.693L6.72618 50.1209L6.5775 49.8688L6.42882 49.6426L6.16379 49.3L5.86967 48.9768L5.55292 48.6729L5.21355 48.3885L4.85479 48.1235L4.48633 47.8843L4.10817 47.6645L3.72678 47.4706L3.34539 47.3122L2.96724 47.1732L2.59555 47.0601L2.23678 46.9696L1.89095 46.905L1.56127 46.8727L1.40613 46.8662H1.25745L1.11524 46.8759L0.979492 46.8953L1.14756 47.6096L1.36088 48.3594L1.61622 49.1287L1.91034 49.9076L2.23032 50.6801L2.57615 51.4364L2.94138 52.1572L3.32277 52.8359L3.51023 53.13L3.72678 53.4047L3.96919 53.6633L4.23422 53.9057L4.52188 54.1255L4.8257 54.3291L5.14568 54.5101L5.47858 54.6717L5.82119 54.8107L6.17026 54.9271L6.52255 55.0208L6.87809 55.0887L7.23039 55.1307L7.57945 55.1469L7.92529 55.1372L8.2582 55.1016L8.40041 55.0854H8.53292L8.65251 55.0919L8.7624 55.1081L9.13733 55.1889L9.21813 55.1986L9.29893 55.1953L9.33772 55.1889L9.3765 55.1792L9.41529 55.163L9.45407 55.1469L9.49286 55.121L9.53165 55.0919L9.61245 55.0143L9.69648 54.9109L9.78375 54.7784L10.2815 53.9413L10.7857 53.0298L11.2414 52.099L11.4354 51.6465L11.597 51.2069L11.7295 50.7415L11.8426 50.247L11.9977 49.1965L12.0818 48.0912L12.1012 46.9793L12.0721 45.8998L12.001 44.8914L11.904 43.9961L11.7941 43.2592L10.5756 45.5152L9.92919 46.7983L9.30863 48.2043L9.2052 48.4855L9.10824 48.7828L9.02097 49.0931L8.94663 49.4196L8.87876 49.7589L8.82058 50.1048L8.73008 50.8288L8.67191 51.6239L8.65898 52.322L8.67837 53.0169L8.71715 53.8023L8.7818 55.0887L8.43273 54.1998L7.60208 51.9923ZM6.35449 42.1473L6.26399 41.4201L6.15409 40.722L6.02158 40.082L5.94724 39.7943L5.86644 39.5293L5.70806 39.1188L5.51414 38.7148L5.29112 38.3205L5.04548 37.9423L4.77722 37.5771L4.48956 37.2281L4.18897 36.9016L3.87546 36.5946L3.55225 36.3231L3.22904 36.071L2.9026 35.8415L2.58262 35.6411L2.2691 35.473L1.96528 35.334L1.6744 35.2338L1.53541 35.1983L1.39967 35.1724L1.36734 35.9094L1.37058 36.6948L1.40613 37.5125L1.474 38.3496L1.57097 39.1899L1.70025 40.0206L1.85216 40.8254L2.03316 41.5946L2.13335 41.934L2.26587 42.2669L2.42748 42.5933L2.61817 42.9101L2.83149 43.2139L3.06743 43.5048L3.32277 43.7795L3.5975 44.0381L3.88839 44.2805L4.18897 44.5003L4.50249 44.7039L4.82247 44.8817L5.14891 45.0336L5.47858 45.1596L5.81149 45.2598L6.14117 45.3309L6.28015 45.36L6.4062 45.4021L6.51932 45.4473L6.61952 45.499L6.95566 45.6929L7.03 45.7285L7.10757 45.7479L7.14635 45.7543L7.18514 45.7576H7.22715L7.26917 45.7511L7.31119 45.7382L7.35644 45.7253L7.45663 45.6768L7.56329 45.6024L7.68288 45.5055L8.38748 44.8623L9.1147 44.1512L9.467 43.7828L9.80314 43.4078L10.1102 43.0329L10.3849 42.6645L10.6403 42.2604L10.8794 41.8241L11.3158 40.8674L11.6939 39.8396L12.0139 38.7827L12.2757 37.7387L12.4826 36.7529L12.6312 35.8673L12.725 35.1272L10.9505 36.8984L9.98737 37.9197L9.01128 39.0671L8.83674 39.2998L8.66221 39.5552L8.49737 39.8267L8.33577 40.1143L8.17739 40.4149L8.02548 40.7317L7.74429 41.3942L7.47603 42.1344L7.27564 42.8002L7.10433 43.4692L6.9298 44.232L6.64214 45.4829L6.55164 44.5261L6.35449 42.1473ZM7.31119 32.3573L7.40815 31.63L7.47603 30.9254L7.50835 30.2726V29.972L7.49542 29.694L7.44371 29.2512L7.35967 28.8084L7.24655 28.3656L7.10433 27.9261L6.93626 27.4962L6.74557 27.076L6.53548 26.672L6.31247 26.2841L6.07329 25.9254L5.82442 25.5892L5.56908 25.2757L5.31051 24.9881L5.05195 24.7327L4.79338 24.5097L4.53804 24.3287L4.41199 24.2544L4.28917 24.1897L4.07262 24.8879L3.87869 25.6442L3.70739 26.4425L3.56518 27.2667L3.44882 28.1038L3.36155 28.9409L3.30661 29.7651L3.28722 30.557L3.30014 30.9125L3.34216 31.2713L3.4165 31.63L3.51993 31.9888L3.64921 32.3443L3.80435 32.6934L3.98212 33.0328L4.17928 33.3625L4.39906 33.6792L4.635 33.983L4.88388 34.2674L5.14891 34.5325L5.42364 34.7749L5.7113 34.9947L6.00219 35.1886L6.30277 35.3534L6.43206 35.4245L6.54195 35.4989L6.63891 35.5797L6.72295 35.6572L6.99767 35.9449L7.06232 35.9999L7.13019 36.0419L7.16574 36.058L7.20453 36.0742L7.24331 36.0839L7.28533 36.0904L7.33058 36.0936L7.37906 36.0904L7.48572 36.0742L7.60531 36.0354L7.74752 35.974L8.58787 35.5635L9.467 35.0916L9.89687 34.8395L10.3138 34.5777L10.7049 34.3095L11.0604 34.0347L11.4063 33.7212L11.7456 33.3722L12.405 32.5803L13.0256 31.7012L13.5976 30.78L14.1115 29.8524L14.5576 28.9636L14.926 28.1555L15.2008 27.4703L13.0514 28.6533L11.8652 29.3546L11.2544 29.7457L10.637 30.1724L10.4075 30.3469L10.1813 30.5408L9.95182 30.7509L9.72234 30.9804L9.49609 31.226L9.27308 31.4846L8.83674 32.0405L8.39071 32.674L8.03195 33.2526L7.70227 33.8473L7.34028 34.5292L6.7488 35.6508L6.90071 34.7005L7.31119 32.3573ZM11.1024 22.7935L11.3449 22.1664L11.5582 21.5523L11.7295 20.9738L11.7941 20.7055L11.8426 20.4534L11.8911 20.0429L11.9105 19.6228L11.904 19.1961L11.8685 18.7695L11.8135 18.3396L11.7327 17.9162L11.6325 17.5025L11.5162 17.0985L11.3772 16.7171L11.2253 16.3519L11.0637 16.006L10.8956 15.6861L10.7178 15.3887L10.5336 15.1269L10.3429 14.8974L10.2459 14.8005L10.149 14.71L9.80637 15.2821L9.47024 15.9123L9.14703 16.5846L8.83997 17.2892L8.55555 18.0132L8.30021 18.7404L8.07397 19.4644L7.8865 20.169L7.81863 20.4922L7.78308 20.8251L7.77015 21.1645L7.78631 21.5136L7.82509 21.8626L7.88974 22.2149L7.977 22.564L8.08366 22.9098L8.20971 23.2492L8.35516 23.5789L8.52 23.8988L8.70099 24.2027L8.89492 24.4903L9.10178 24.7586L9.32479 25.0042L9.5575 25.2272L9.6577 25.3242L9.74173 25.4179L9.80961 25.5117L9.87102 25.6054L10.0552 25.9318L10.1005 25.9965L10.1522 26.0547L10.1813 26.0773L10.2104 26.0999L10.2459 26.1193L10.2815 26.1355L10.3203 26.1484L10.3655 26.1581L10.4625 26.171L10.5821 26.1678L10.7211 26.1484L11.5614 25.99L12.4502 25.7896L12.8898 25.67L13.3197 25.5408L13.7269 25.3985L14.1051 25.2434L14.4832 25.0495L14.8614 24.82L15.6242 24.277L16.3676 23.6467L17.0818 22.9615L17.7412 22.2602L18.3327 21.575L18.8336 20.9447L19.228 20.3985L17.0463 20.9156L15.831 21.2485L15.2008 21.4457L14.5576 21.6719L14.3152 21.7721L14.0695 21.8885L13.8174 22.021L13.5653 22.1664L13.31 22.328L13.0514 22.5058L12.7961 22.6933L12.5407 22.8937L12.0074 23.3494L11.5614 23.7793L11.1348 24.2285L10.6661 24.7489L9.89687 25.6054L10.2362 24.7909L11.1024 22.7935ZM16.4904 15.2562L16.9073 14.7455L17.2887 14.2381L17.6216 13.75L17.7638 13.5173L17.8834 13.2943L18.0515 12.9226L18.1937 12.5348L18.3133 12.1275L18.407 11.7073L18.4781 11.2839L18.5298 10.8541L18.5589 10.4274L18.5654 10.004L18.546 9.59354L18.5104 9.19599L18.462 8.81137L18.3941 8.44938L18.3133 8.10677L18.2163 7.79326L18.1064 7.51207L18.0418 7.38602L17.9771 7.26643L17.4826 7.68983L16.9784 8.16818L16.471 8.69502L15.9732 9.25417L15.4916 9.84242L15.0327 10.4436L14.6061 11.0512L14.2182 11.6556L14.0598 11.9368L13.9241 12.2406L13.8142 12.5606L13.7269 12.8935L13.659 13.2394L13.617 13.5949L13.5944 13.9537V14.3189L13.6138 14.6841L13.6558 15.0493L13.7172 15.4081L13.798 15.7572L13.8982 16.0965L14.0146 16.423L14.1536 16.7365L14.3087 17.0274L14.3733 17.1534L14.4251 17.273L14.4638 17.3862L14.4929 17.4928L14.5705 17.8645L14.5931 17.9421L14.6254 18.0132L14.6448 18.0455L14.6675 18.0778L14.6933 18.1069L14.7256 18.136L14.758 18.1619L14.7967 18.1877L14.8872 18.233L15.0004 18.2685L15.1361 18.3008L15.9797 18.4431L16.8815 18.5594L17.334 18.6014L17.78 18.6273L18.2066 18.6337L18.6106 18.6176L19.0243 18.5659L19.4542 18.4786L20.3333 18.2265L21.2286 17.8871L22.1045 17.4863L22.9352 17.05L23.698 16.6072L24.3605 16.1806L24.8938 15.8024L22.6734 15.5374L21.4258 15.4307L20.7697 15.4016L20.0942 15.3919L19.8356 15.4016L19.5673 15.4243L19.2926 15.463L19.0082 15.5148L18.7173 15.5826L18.4232 15.6602L18.1258 15.7507L17.8252 15.8509L17.182 16.0965L16.6326 16.3454L16.0961 16.6266L15.4949 16.9563L14.5156 17.4993L15.0779 16.8464L16.4904 15.2562ZM22.7057 10.3725L23.1614 9.99432L23.5848 9.6097L23.963 9.23155L24.1246 9.05055L24.2701 8.87278L24.4801 8.5722L24.6708 8.24899L24.8421 7.90638L24.994 7.54762L25.1266 7.17916L25.2397 6.80424L25.3334 6.42608L25.4078 6.04792L25.4562 5.67623L25.4853 5.311L25.5015 4.9587V4.61933L25.4821 4.29935L25.4465 3.99877L25.3916 3.72404L25.356 3.60122L25.3173 3.48163L24.8066 3.76929L24.2765 4.10543L23.7368 4.48358L23.2002 4.89083L22.6734 5.32716L22.1659 5.78289L21.6844 6.24831L21.2416 6.71697L21.0541 6.93998L20.886 7.18562L20.7341 7.45389L20.6016 7.73508L20.4885 8.03567L20.3948 8.34595L20.3172 8.66593L20.2558 8.99237L20.217 9.32205L20.1944 9.65819L20.1911 9.99109L20.2073 10.3208L20.2428 10.644L20.2978 10.9607L20.3689 11.2645L20.4626 11.5554L20.5014 11.6783L20.5273 11.7978L20.5467 11.9045L20.5531 12.0079L20.5661 12.357L20.5758 12.4313L20.5919 12.4992L20.6048 12.5348L20.621 12.5671L20.6372 12.5994L20.6598 12.6285L20.6856 12.6608L20.7147 12.6899L20.7891 12.7448L20.886 12.7998L21.0024 12.8547L21.7361 13.1392L22.5279 13.4139L22.9287 13.5367L23.323 13.6434L23.7077 13.7274L24.0729 13.7888L24.4543 13.8179L24.8518 13.8211L25.6825 13.7597L26.539 13.6207L27.389 13.4268L28.2068 13.1909L28.9598 12.9355L29.6224 12.677L30.1622 12.4378L28.2132 11.7849L27.1111 11.4552L26.5261 11.3033L25.9184 11.1708L25.6857 11.132L25.4433 11.1029L25.188 11.0868L24.9262 11.0803L24.6547 11.0835L24.3767 11.0997L24.0955 11.1223L23.8079 11.1579L23.1905 11.2581L22.6572 11.3809L22.1336 11.5296L21.5422 11.717L20.5758 12.0209L21.1834 11.5393L22.7057 10.3725ZM29.422 6.8204L29.8066 6.49719L30.1686 6.17074L30.4854 5.85076L30.6244 5.69562L30.7472 5.54695L30.925 5.29161L31.0866 5.01688L31.2288 4.72922L31.3581 4.42541L31.4712 4.11189L31.5649 3.79191L31.6457 3.47193L31.7071 3.15196L31.7491 2.83844L31.775 2.52816L31.7912 2.23081V1.94315L31.775 1.67165L31.7427 1.41631L31.6974 1.18684L31.6683 1.08018L31.6328 0.97998L31.1997 1.22239L30.7504 1.50681L30.2947 1.82679L29.839 2.17263L29.3929 2.54432L28.9598 2.92894L28.5526 3.32326L28.1777 3.72081L28.0193 3.9115L27.8771 4.11836L27.7478 4.3446L27.6347 4.58378L27.5409 4.83588L27.4569 5.09768L27.3923 5.36918L27.3438 5.64714L27.3082 5.92834L27.2921 6.21276L27.2888 6.49395L27.3018 6.77515L27.3341 7.04988L27.3793 7.31814L27.444 7.57671L27.5215 7.82235L27.5539 7.92901L27.5765 8.02597L27.5894 8.1197L27.5959 8.20374L27.6056 8.50109L27.612 8.5625L27.6282 8.62391L27.6379 8.64977L27.6508 8.67886L27.667 8.70471L27.6864 8.73057L27.709 8.75643L27.7349 8.78229L27.7963 8.83077L27.8771 8.87602L27.9773 8.92127L28.5978 9.16367L29.2701 9.39639L29.6095 9.49981L29.9424 9.58708L30.2688 9.66142L30.5791 9.71313L30.9023 9.73899L31.2385 9.74222L31.9431 9.69051L32.6671 9.57092L33.3878 9.40608L34.0827 9.20569L34.7227 8.98914L35.2818 8.76936L35.7408 8.56573L34.0892 8.01304L33.1519 7.73508L32.6574 7.6058L32.1435 7.49267L31.9463 7.46035L31.7394 7.4345L31.5229 7.42157L31.2999 7.4151L31.0704 7.42157L30.8345 7.4345L30.3529 7.48298L29.8325 7.56701L29.5998 7.61873L29.38 7.67367L28.934 7.79973L28.433 7.9581L27.6153 8.21343L28.1292 7.80619L29.422 6.8204Z" fill="url(#paint1_linear_565_2078)"/>
<defs>
<linearGradient id="paint0_linear_565_2078" x1="25.2207" y1="40.6349" x2="60.7836" y2="40.6349" gradientUnits="userSpaceOnUse">
<stop stop-color="#A55906"/>
<stop offset="1" stop-color="#FECD51"/>
</linearGradient>
<linearGradient id="paint1_linear_565_2078" x1="-1.74194" y1="46.126" x2="87.7357" y2="39.8687" gradientUnits="userSpaceOnUse">
<stop stop-color="#A55906"/>
<stop offset="1" stop-color="#FECD51"/>
</linearGradient>
</defs>
</svg>
