<svg width="165" height="56" viewBox="0 0 165 56" fill="none" xmlns="http://www.w3.org/2000/svg">
<g clip-path="url(#clip0_224_244)">
<path d="M6.72913 0.000244141H158.268C161.964 0.000244141 164.968 3.01304 164.968 6.72024V49.2802C164.968 52.9874 161.964 56.0002 158.268 56.0002H6.72913C3.03279 56.0002 0.0288086 52.9874 0.0288086 49.2802V6.72024C0.0288086 3.01304 3.03279 0.000244141 6.72913 0.000244141Z" fill="white"/>
<path d="M36.1338 26.7234C36.1003 22.7138 39.4058 20.765 39.551 20.6754C37.6749 17.9426 34.7714 17.5618 33.7552 17.5282C31.3208 17.2706 28.9533 18.9954 27.7138 18.9954C26.4519 18.9954 24.5311 17.5618 22.4763 17.5954C19.8297 17.6402 17.3394 19.1746 15.9882 21.5714C13.1852 26.4434 15.2735 33.6114 17.9648 37.5538C19.316 39.4802 20.8794 41.6418 22.9454 41.5634C24.9555 41.485 25.7148 40.2754 28.1381 40.2754C30.5502 40.2754 31.2538 41.5634 33.3532 41.5186C35.5196 41.485 36.8709 39.581 38.1774 37.6322C39.7297 35.4258 40.355 33.2418 40.3774 33.1298C40.3215 33.1074 36.1785 31.517 36.1338 26.7234ZM32.1695 14.941C33.2527 13.5858 33.9897 11.7378 33.7887 9.8562C32.2253 9.9234 30.2599 10.9426 29.132 12.2754C28.1381 13.4514 27.2447 15.3666 27.4681 17.1698C29.2325 17.3042 31.0416 16.2738 32.1695 14.941ZM65.3025 41.2834H62.4884L60.9473 36.4226H55.5871L54.1242 41.2834H51.3882L56.6926 24.741H59.9758L65.3025 41.2834ZM60.4895 34.3842L59.0936 30.0722C58.9484 29.6242 58.6692 28.5938 58.2672 26.9586H58.2114C58.0439 27.6642 57.787 28.7058 57.4297 30.0722L56.0561 34.3842H60.4895ZM78.9377 35.1794C78.9377 37.2066 78.3905 38.8082 77.285 39.9842C76.3022 41.037 75.0738 41.5522 73.6221 41.5522C72.0475 41.5522 70.9196 40.9922 70.2273 39.861V46.1218H67.5807V33.2754C67.5807 31.9986 67.5472 30.6994 67.4801 29.3554H69.8029L69.9481 31.2482H69.9928C70.875 29.8258 72.215 29.109 74.0018 29.109C75.4089 29.109 76.5702 29.669 77.5083 30.7778C78.4687 31.8978 78.9377 33.3538 78.9377 35.1794ZM76.2464 35.269C76.2464 34.1042 75.9896 33.1522 75.4647 32.4018C74.8952 31.6178 74.1246 31.2258 73.1643 31.2258C72.5166 31.2258 71.9247 31.4498 71.3887 31.8754C70.8638 32.3122 70.5065 32.8722 70.3501 33.5778C70.2719 33.9026 70.2273 34.1714 70.2273 34.3842V36.3778C70.2273 37.2402 70.4953 37.9794 71.0202 38.573C71.545 39.1666 72.2374 39.469 73.0861 39.469C74.08 39.469 74.8505 39.077 75.4089 38.3154C75.9672 37.5426 76.2464 36.5346 76.2464 35.269ZM92.6063 35.1794C92.6063 37.2066 92.0592 38.8082 90.9536 39.9842C89.9709 41.037 88.7425 41.5522 87.2908 41.5522C85.7162 41.5522 84.5883 40.9922 83.8959 39.861V46.1218H81.2493V33.2754C81.2493 31.9986 81.2158 30.6994 81.1488 29.3554H83.4716L83.6168 31.2482H83.6614C84.5436 29.8258 85.8837 29.109 87.6704 29.109C89.0775 29.109 90.2389 29.669 91.1769 30.7778C92.1373 31.8978 92.6063 33.3538 92.6063 35.1794ZM89.9151 35.269C89.9151 34.1042 89.6582 33.1522 89.1334 32.4018C88.5638 31.6178 87.7933 31.2258 86.8329 31.2258C86.1852 31.2258 85.5934 31.4498 85.0573 31.8754C84.5325 32.3122 84.1863 32.8722 84.0188 33.5778C83.9406 33.9026 83.8959 34.1714 83.8959 34.3842V36.3778C83.8959 37.2402 84.1639 37.9794 84.6888 38.573C85.2137 39.1666 85.906 39.469 86.7547 39.469C87.7486 39.469 88.5303 39.077 89.0775 38.3154C89.647 37.5426 89.9151 36.5346 89.9151 35.269ZM107.905 36.6466C107.905 38.0578 107.414 39.2002 106.443 40.085C105.37 41.0482 103.874 41.5298 101.953 41.5298C100.178 41.5298 98.7595 41.1826 97.6874 40.4994L98.3016 38.293C99.463 38.9762 100.736 39.3234 102.121 39.3234C103.115 39.3234 103.896 39.0994 104.444 38.6514C105.002 38.2034 105.281 37.5986 105.281 36.8482C105.281 36.1762 105.047 35.6162 104.6 35.157C104.142 34.6978 103.383 34.2722 102.322 33.8802C99.4072 32.7938 97.9666 31.2146 97.9666 29.1426C97.9666 27.7874 98.4803 26.6786 99.4965 25.805C100.513 24.9426 101.864 24.5058 103.55 24.5058C105.047 24.5058 106.297 24.7634 107.291 25.2898L106.621 27.4402C105.683 26.9362 104.633 26.6786 103.45 26.6786C102.523 26.6786 101.786 26.9138 101.261 27.3618C100.825 27.7762 100.602 28.269 100.602 28.8626C100.602 29.5122 100.859 30.061 101.361 30.4754C101.797 30.8674 102.601 31.293 103.762 31.7522C105.181 32.3234 106.219 32.9954 106.889 33.7682C107.57 34.541 107.905 35.5042 107.905 36.6466ZM116.66 31.349H113.746V37.1394C113.746 38.6066 114.26 39.3458 115.287 39.3458C115.756 39.3458 116.147 39.301 116.459 39.2226L116.538 41.2386C116.013 41.429 115.332 41.5298 114.483 41.5298C113.433 41.5298 112.629 41.205 112.037 40.5666C111.445 39.9282 111.155 38.853 111.155 37.3522V31.3378H109.424V29.3554H111.155V27.1714L113.746 26.3874V29.3554H116.66V31.349ZM129.771 35.2242C129.771 37.061 129.246 38.5618 128.207 39.7378C127.113 40.9474 125.661 41.5522 123.852 41.5522C122.11 41.5522 120.714 40.9698 119.676 39.8162C118.637 38.6626 118.123 37.1954 118.123 35.4258C118.123 33.5778 118.659 32.0658 119.72 30.8898C120.792 29.7138 122.233 29.1202 124.042 29.1202C125.784 29.1202 127.191 29.7026 128.252 30.8674C129.268 31.9874 129.771 33.4434 129.771 35.2242ZM127.035 35.2802C127.035 34.1826 126.8 33.253 126.331 32.469C125.773 31.517 124.98 31.0466 123.953 31.0466C122.892 31.0466 122.077 31.517 121.529 32.469C121.049 33.253 120.826 34.205 120.826 35.3362C120.826 36.4338 121.06 37.3746 121.529 38.1474C122.099 39.0994 122.903 39.5698 123.93 39.5698C124.935 39.5698 125.728 39.0882 126.309 38.125C126.789 37.3186 127.035 36.3778 127.035 35.2802ZM138.37 31.685C138.113 31.6402 137.834 31.6178 137.532 31.6178C136.605 31.6178 135.879 31.965 135.377 32.6706C134.941 33.2866 134.718 34.0818 134.718 35.0226V41.2834H132.071V33.1074C132.071 31.7298 132.049 30.4754 131.993 29.3554H134.294L134.394 31.6402H134.472C134.751 30.8562 135.187 30.2178 135.79 29.7474C136.382 29.3218 137.018 29.109 137.7 29.109C137.945 29.109 138.169 29.1314 138.358 29.1538L138.37 31.685ZM150.184 34.7538C150.184 35.2242 150.151 35.6274 150.084 35.9522H142.155C142.189 37.1282 142.568 38.0354 143.305 38.6514C143.975 39.2002 144.835 39.4802 145.896 39.4802C147.069 39.4802 148.141 39.2898 149.101 38.9202L149.514 40.757C148.387 41.2498 147.058 41.4962 145.528 41.4962C143.685 41.4962 142.233 40.9474 141.184 39.861C140.134 38.7746 139.609 37.3074 139.609 35.4818C139.609 33.6898 140.1 32.189 141.083 30.9906C142.111 29.7138 143.495 29.0754 145.237 29.0754C146.946 29.0754 148.253 29.7138 149.124 30.9906C149.827 32.021 150.184 33.2642 150.184 34.7538ZM147.661 34.0706C147.683 33.2866 147.504 32.6034 147.147 32.0322C146.689 31.293 145.986 30.9234 145.048 30.9234C144.188 30.9234 143.484 31.2818 142.948 31.9986C142.513 32.5698 142.245 33.2642 142.166 34.0594L147.661 34.0706Z" fill="black"/>
<path d="M59.2163 18.8274H57.8316L57.0722 16.4418H54.4368L53.7109 18.8274H52.3708L54.9728 10.6962H56.5809L59.2163 18.8274ZM56.8377 15.4338L56.1565 13.3058C56.0895 13.093 55.9555 12.5778 55.7433 11.7714H55.721C55.6317 12.1186 55.52 12.6226 55.3302 13.3058L54.6601 15.4338H56.8377ZM65.738 12.9586L63.5269 18.8274H62.265L60.1209 12.9586H61.5168L62.5107 16.061C62.6782 16.5762 62.8233 17.069 62.935 17.5394H62.9685C63.069 17.1138 63.2142 16.621 63.3929 16.061L64.3756 12.9586H65.738ZM70.4505 18.8274L70.35 18.1554H70.3165C69.9145 18.693 69.345 18.9618 68.6079 18.9618C67.5582 18.9618 66.8212 18.2226 66.8212 17.237C66.8212 15.7922 68.0719 15.0418 70.2384 15.0418V14.9298C70.2384 14.157 69.8252 13.7762 69.0211 13.7762C68.4404 13.7762 67.9379 13.9218 67.4912 14.213L67.2232 13.3618C67.7592 13.0258 68.4404 12.8578 69.2333 12.8578C70.7632 12.8578 71.5337 13.6642 71.5337 15.2882V17.4498C71.5337 18.0434 71.5561 18.5026 71.6231 18.8498L70.4505 18.8274ZM70.2719 15.9042C68.8313 15.9042 68.1054 16.2514 68.1054 17.0914C68.1054 17.7074 68.4739 18.0098 68.9988 18.0098C69.6577 18.0098 70.2719 17.5058 70.2719 16.8114V15.9042ZM74.4261 11.9954C73.9905 11.9954 73.6555 11.6594 73.6555 11.2114C73.6555 10.7634 74.0017 10.4386 74.4484 10.4386C74.8951 10.4386 75.2524 10.7634 75.2413 11.2114C75.2413 11.6818 74.9062 11.9954 74.4261 11.9954ZM73.8007 12.9586H75.0961V18.8162H73.8007V12.9586ZM77.4077 10.2706H78.7031V18.8162H77.4077V10.2706ZM84.2197 18.8274L84.1192 18.1554H84.0857C83.6837 18.693 83.1141 18.9618 82.3771 18.9618C81.3274 18.9618 80.5903 18.2226 80.5903 17.237C80.5903 15.7922 81.8411 15.0418 84.0075 15.0418V14.9298C84.0075 14.157 83.5943 13.7762 82.7903 13.7762C82.2096 13.7762 81.7071 13.9218 81.2604 14.213L80.9924 13.3506C81.5284 13.0146 82.2096 12.8466 83.0025 12.8466C84.5324 12.8466 85.3029 13.653 85.3029 15.277V17.4386C85.3029 18.0322 85.3252 18.4914 85.3811 18.8386H84.2197V18.8274ZM84.041 15.9042C82.6004 15.9042 81.8746 16.2514 81.8746 17.0914C81.8746 17.7074 82.2431 18.0098 82.7679 18.0098C83.4268 18.0098 84.041 17.5058 84.041 16.8114V15.9042ZM90.5738 18.9618C89.7474 18.9618 89.1332 18.6146 88.7312 17.9202H88.7089L88.6307 18.8274H87.5252C87.5587 18.357 87.5698 17.8306 87.5698 17.2482V10.2706H88.8764V13.821H88.8987C89.2896 13.1714 89.9038 12.8466 90.7637 12.8466C92.1707 12.8466 93.1534 14.0562 93.1534 15.8146C93.1534 17.629 92.059 18.9618 90.5738 18.9618ZM90.3058 13.8658C89.5576 13.8658 88.8764 14.5154 88.8764 15.4226V16.453C88.8764 17.2594 89.4906 17.9202 90.2835 17.9202C91.255 17.9202 91.8357 17.125 91.8357 15.8594C91.8357 14.6722 91.2327 13.8658 90.3058 13.8658ZM95.0742 10.2706H96.3696V18.8162H95.0742V10.2706ZM103.438 16.2066H99.5411C99.5634 17.3154 100.3 17.9426 101.384 17.9426C101.964 17.9426 102.489 17.8418 102.958 17.6626L103.159 18.5698C102.612 18.8162 101.964 18.9282 101.205 18.9282C99.3736 18.9282 98.2903 17.7746 98.2903 15.9714C98.2903 14.1794 99.3959 12.8242 101.06 12.8242C102.545 12.8242 103.494 13.933 103.494 15.613C103.494 15.8482 103.483 16.0498 103.438 16.2066ZM102.255 15.277C102.255 14.3698 101.797 13.7314 100.97 13.7314C100.222 13.7314 99.6416 14.381 99.5522 15.277H102.255ZM111.311 18.9618C109.603 18.9618 108.497 17.685 108.497 15.949C108.497 14.1346 109.625 12.8466 111.412 12.8466C113.098 12.8466 114.226 14.0674 114.226 15.8482C114.226 17.6738 113.065 18.9618 111.311 18.9618ZM111.367 13.7986C110.429 13.7986 109.826 14.6834 109.826 15.9042C109.826 17.1138 110.44 17.9874 111.356 17.9874C112.272 17.9874 112.886 17.0466 112.886 15.8706C112.875 14.6834 112.283 13.7986 111.367 13.7986ZM121.205 18.8274H119.91V15.4562C119.91 14.4146 119.508 13.8994 118.726 13.8994C117.956 13.8994 117.431 14.5602 117.431 15.333V18.8162H116.136V14.6386C116.136 14.1234 116.124 13.5634 116.091 12.9586H117.23L117.286 13.8658H117.319C117.665 13.2386 118.38 12.8354 119.173 12.8354C120.401 12.8354 121.205 13.7762 121.205 15.3106V18.8274ZM129.704 13.9442H128.274V16.789C128.274 17.517 128.531 17.8754 129.034 17.8754C129.257 17.8754 129.458 17.853 129.614 17.8194L129.648 18.805C129.391 18.9058 129.056 18.9506 128.643 18.9506C127.615 18.9506 127.012 18.3794 127.012 16.901V13.9442H126.164V12.9698H127.012V11.8946L128.285 11.5026V12.9586H129.715V13.9442H129.704ZM136.583 18.8274H135.287V15.4786C135.287 14.4258 134.885 13.8994 134.104 13.8994C133.433 13.8994 132.808 14.3586 132.808 15.2882V18.8162H131.513V10.2706H132.808V13.7874H132.83C133.244 13.149 133.824 12.8354 134.584 12.8354C135.823 12.8354 136.583 13.7986 136.583 15.333V18.8274ZM143.216 16.2066H139.319C139.341 17.3154 140.078 17.9426 141.161 17.9426C141.742 17.9426 142.267 17.8418 142.736 17.6626L142.937 18.5698C142.39 18.8162 141.742 18.9282 140.983 18.9282C139.151 18.9282 138.068 17.7746 138.068 15.9714C138.068 14.1794 139.173 12.8242 140.837 12.8242C142.323 12.8242 143.272 13.933 143.272 15.613C143.272 15.8482 143.261 16.0498 143.216 16.2066ZM142.032 15.277C142.032 14.3698 141.574 13.7314 140.748 13.7314C140 13.7314 139.408 14.381 139.33 15.277H142.032Z" fill="black"/>
</g>
<defs>
<clipPath id="clip0_224_244">
<rect width="165" height="56" fill="white" transform="translate(0 0.000244141)"/>
</clipPath>
</defs>
</svg>
