<svg width="172" height="56" viewBox="0 0 172 56" fill="none" xmlns="http://www.w3.org/2000/svg">
<g clip-path="url(#clip0_224_248)">
<path d="M172 48.4319C172 52.611 168.596 56.0002 164.398 56.0002H7.60327C3.40482 56.0006 0 52.6113 0 48.4319V7.56795C0 3.38914 3.40482 0.000244141 7.60327 0.000244141H164.398C168.596 0.000244141 172 3.38914 172 7.56795V48.4319H172Z" fill="#F2F3F7"/>
<path d="M12.9014 10.7815V48.7047L32.1143 29.7433L12.9014 10.7815Z" fill="url(#paint0_linear_224_248)"/>
<path d="M37.2745 24.65L29.5189 20.1934L12.9014 10.6436V10.7815L32.1143 29.7432L37.2745 24.65Z" fill="url(#paint1_linear_224_248)"/>
<path d="M12.9014 48.7047V48.8426L29.5189 39.2924L37.2742 34.8358L32.1143 29.7433L12.9014 48.7047Z" fill="url(#paint2_linear_224_248)"/>
<path d="M37.2745 24.6499L32.1143 29.7431L37.2741 34.8357L46.1374 29.7428L37.2745 24.6499Z" fill="url(#paint3_linear_224_248)"/>
<path d="M133.859 37.1562C133.137 37.1562 132.479 37.0237 131.882 36.7589C131.286 36.4939 130.785 36.0862 130.381 35.5366H130.259C130.34 36.1806 130.381 36.7911 130.381 37.3678V41.9061H128.703V25.9262H130.068L130.3 27.4357H130.381C130.812 26.8316 131.315 26.3961 131.887 26.1277C132.46 25.8592 133.117 25.725 133.858 25.725C135.328 25.725 136.462 26.2251 137.26 27.2245C138.059 28.2239 138.459 29.6264 138.459 31.4304C138.459 33.2419 138.052 34.6486 137.241 35.6524C136.429 36.6552 135.302 37.1562 133.859 37.1562ZM133.616 27.1438C132.484 27.1438 131.665 27.4561 131.159 28.0797C130.654 28.7036 130.394 29.6967 130.381 31.0586V31.4305C130.381 32.9804 130.64 34.089 131.159 34.7568C131.679 35.4245 132.511 35.7575 133.656 35.7575C134.614 35.7575 135.364 35.3723 135.907 34.6008C136.449 33.8296 136.72 32.7663 136.72 31.4104C136.72 30.0357 136.449 28.98 135.907 28.2457C135.364 27.5107 134.6 27.1438 133.616 27.1438ZM142.345 36.9548H140.667V21.2972H142.345V36.9548ZM151.994 36.9548L151.66 35.385H151.579C151.026 36.0765 150.475 36.5447 149.926 36.7887C149.377 37.0341 148.691 37.1563 147.869 37.1563C146.77 37.1563 145.909 36.8744 145.285 36.3111C144.662 35.7478 144.35 34.9465 144.35 33.9062C144.35 31.6794 146.14 30.512 149.719 30.4042L151.6 30.3436V29.6595C151.6 28.7939 151.412 28.1547 151.038 27.7426C150.665 27.3296 150.065 27.1234 149.244 27.1234C148.32 27.1234 147.275 27.4053 146.11 27.9686L145.594 26.6907C146.14 26.3954 146.738 26.1642 147.389 25.9965C148.039 25.8288 148.691 25.7448 149.345 25.7448C150.666 25.7448 151.645 26.0363 152.282 26.6201C152.919 27.2038 153.237 28.1396 153.237 29.4279V36.9544H151.994V36.9548H151.994ZM148.202 35.7779C149.246 35.7779 150.067 35.4927 150.664 34.9227C151.26 34.3527 151.559 33.5541 151.559 32.5273V31.5312L149.88 31.6011C148.545 31.649 147.584 31.8545 146.993 32.221C146.404 32.5865 146.109 33.1552 146.109 33.9267C146.109 34.5301 146.292 34.99 146.66 35.3046C147.028 35.6203 147.541 35.7779 148.202 35.7779ZM154.211 25.9262H156.01L158.437 32.2156C158.969 33.6515 159.3 34.6878 159.428 35.3254H159.509C159.597 34.9826 159.781 34.3979 160.06 33.5685C160.34 32.7398 161.255 30.193 162.805 25.9262H164.605L159.843 38.4847C159.371 39.7258 158.82 40.6064 158.189 41.1272C157.559 41.6466 156.785 41.9061 155.87 41.9061C155.357 41.9061 154.852 41.8492 154.353 41.7354V40.3972C154.723 40.4775 155.138 40.518 155.596 40.518C156.749 40.518 157.571 39.874 158.063 38.5858L158.68 37.0163L154.211 25.9262ZM102.77 26.9511C103.303 27.3898 104.415 28.3116 104.415 30.0658C104.415 31.7718 103.442 32.5808 102.468 33.3409C102.167 33.6405 101.819 33.9645 101.819 34.4725C101.819 34.979 102.166 35.2561 102.422 35.464L103.257 36.1086C104.277 36.9624 105.203 37.7473 105.203 39.3395C105.203 41.5077 103.093 43.6984 99.1079 43.6984C95.7468 43.6984 94.1253 42.1072 94.1253 40.3992C94.1253 39.5691 94.5406 38.3933 95.9099 37.585C97.3458 36.7084 99.2939 36.5942 100.336 36.5233C100.011 36.1086 99.6409 35.6701 99.6409 34.9562C99.6409 34.5646 99.7573 34.3337 99.8727 34.0555C99.6167 34.079 99.3622 34.102 99.1302 34.102C96.6743 34.102 95.2838 32.2796 95.2838 30.4812C95.2838 29.4198 95.7711 28.2427 96.7665 27.3902C98.088 26.3061 99.6638 26.121 100.916 26.121H105.69L104.206 26.9514H102.77V26.9511H102.77ZM101.124 37.1937C100.939 37.1696 100.822 37.1696 100.592 37.1696C100.383 37.1696 99.1298 37.2168 98.1576 37.5405C97.6478 37.7236 96.1641 38.2772 96.1641 39.9159C96.1641 41.5529 97.7641 42.7311 100.244 42.7311C102.468 42.7311 103.651 41.6678 103.651 40.2389C103.651 39.06 102.886 38.4398 101.124 37.1937ZM101.796 32.8101C102.329 32.2789 102.375 31.5415 102.375 31.1258C102.375 29.4654 101.378 26.8818 99.4553 26.8818C98.852 26.8818 98.2037 27.1813 97.8327 27.6432C97.4393 28.1275 97.3223 28.7498 97.3223 29.3502C97.3223 30.8956 98.2262 33.4564 100.22 33.4564C100.8 33.4564 101.424 33.1796 101.796 32.8101ZM88.1792 36.8245C84.5006 36.8245 82.5338 33.9685 82.5338 31.3886C82.5338 28.3712 85.0091 25.793 88.5276 25.793C91.9274 25.793 94.0564 28.4405 94.0564 31.2279C94.0567 33.9444 91.9519 36.8245 88.1792 36.8245ZM91.0712 34.9592C91.6274 34.2215 91.7663 33.3008 91.7663 32.4018C91.7663 30.3744 90.7944 26.5059 87.925 26.5059C87.1616 26.5059 86.3983 26.8058 85.8431 27.2905C84.9405 28.0954 84.7778 29.1093 84.7778 30.1007C84.7778 32.379 85.9117 36.132 88.7122 36.132C89.6144 36.132 90.5402 35.6952 91.0712 34.9592ZM75.6377 36.8245C71.9584 36.8245 69.9912 33.9685 69.9912 31.3886C69.9912 28.3712 72.4675 25.793 75.985 25.793C79.3858 25.793 81.5144 28.4405 81.5144 31.2279C81.5148 33.9444 79.4097 36.8245 75.6377 36.8245ZM78.5303 34.9592C79.0855 34.2215 79.2248 33.3008 79.2248 32.4018C79.2248 30.3744 78.2522 26.5059 75.3827 26.5059C74.6197 26.5059 73.8557 26.8058 73.3008 27.2905C72.3983 28.0954 72.2365 29.1093 72.2365 30.1007C72.2365 32.379 73.3698 36.132 76.1707 36.132C77.0732 36.132 77.9984 35.6952 78.5303 34.9592ZM68.2237 36.4634L64.8965 37.2275C63.5467 37.4364 62.3375 37.6201 61.0586 37.6201C54.637 37.6201 52.1953 32.9195 52.1953 29.2378C52.1953 24.7464 55.661 20.5796 61.594 20.5796C62.8506 20.5796 64.0593 20.7643 65.1525 21.0656C66.8971 21.5519 67.7113 22.1534 68.2234 22.5012L66.2918 24.3303L65.478 24.5147L66.0594 23.5883C65.2688 22.8248 63.8252 21.4127 61.0812 21.4127C57.4053 21.4127 54.6364 24.1924 54.6364 28.244C54.6364 32.5959 57.8008 36.6943 62.8712 36.6943C64.3616 36.6943 65.1276 36.3938 65.826 36.1153V32.3884L62.314 32.5734L64.1742 31.5767H69.1064L68.5022 32.1554C68.3381 32.295 68.3156 32.3419 68.2691 32.5253C68.2449 32.7341 68.2231 33.4062 68.2231 33.6375V36.4634H68.2237V36.4634Z" fill="black"/>
<path d="M110.123 35.7967C109.355 35.7271 109.194 35.5889 109.194 34.6848V21.5798C109.199 21.5299 109.202 21.4787 109.206 21.4305C109.3 20.6205 109.532 20.4816 110.254 20.0642H106.927L105.181 20.898H106.96V20.9083L106.959 20.9V35.1949C106.959 35.6572 106.867 35.7274 106.331 36.4213H110.449L111.31 35.9132C110.915 35.8653 110.519 35.8429 110.123 35.7967ZM119.589 36.0096C119.336 36.1478 119.081 36.3095 118.828 36.4236C118.065 36.7684 117.279 36.8608 116.585 36.8608C115.847 36.8608 114.691 36.8132 113.512 35.9634C111.873 34.8127 111.157 32.8353 111.157 31.1112C111.157 27.5476 114.068 25.8001 116.447 25.8001C117.279 25.8001 118.135 26.0066 118.828 26.4444C119.982 27.2018 120.282 28.1906 120.443 28.7197L115.015 30.905L113.236 31.0429C113.813 33.9632 115.799 35.6635 117.995 35.6635C119.173 35.6635 120.028 35.2505 120.813 34.8602L119.589 36.0096ZM117.418 29.1562C117.856 28.9958 118.087 28.8573 118.087 28.5356C118.087 27.6165 117.048 26.5582 115.799 26.5582C114.874 26.5582 113.143 27.2714 113.143 29.7543C113.143 30.1452 113.189 30.5589 113.213 30.9743L117.418 29.1562ZM121.819 25.9574V27.4746H121.634V25.9574H121.129V25.8H122.323V25.9574H121.819ZM123.897 27.4746V25.9433H123.889L123.419 27.4746H123.274L122.801 25.9433H122.795V27.4746H122.627V25.8001H122.915L123.343 27.1536H123.349L123.771 25.8001H124.063V27.4746H123.897Z" fill="black"/>
<path d="M56.8157 16.0711H55.6595C55.6595 15.9128 55.5499 15.4646 55.3306 14.7263H53.6617C53.4354 15.4526 53.3221 15.9007 53.3221 16.0711H52.2349C52.2349 15.9777 52.516 15.2105 53.0782 13.77C53.6405 12.3294 53.9216 11.5358 53.9216 11.3899H55.2873C55.2873 11.5265 55.5418 12.3083 56.0513 13.7359C56.5608 15.1634 56.8157 15.9416 56.8157 16.0711ZM55.1467 14.0394C54.7348 12.8027 54.529 12.134 54.529 12.0332H54.4711C54.4711 12.1266 54.2579 12.7953 53.8319 14.0394H55.1467ZM61.4738 16.0711H60.5816C60.5816 15.9727 60.2504 15.4539 59.5883 14.5144C58.8949 13.5243 58.4997 12.8476 58.4036 12.4831H58.3457C58.4059 13.0079 58.4362 13.4825 58.4362 13.9069C58.4362 14.499 58.4531 15.2206 58.4867 16.0715H57.5979C57.6338 15.3284 57.652 14.5124 57.652 13.6231C57.652 12.7482 57.6339 12.0038 57.5979 11.3903H58.6706C58.6706 11.5175 58.9679 12.0245 59.5627 12.9112C60.196 13.853 60.5598 14.492 60.6537 14.8277H60.7078C60.65 14.2932 60.621 13.8138 60.621 13.3895C60.621 12.7402 60.6042 12.0734 60.5706 11.3903H61.4738C61.4399 11.9847 61.4234 12.7291 61.4234 13.6231C61.423 14.5238 61.4398 15.3398 61.4738 16.0711ZM66.7093 13.5685C66.7093 14.2493 66.4901 14.8438 66.0519 15.3518C65.6134 15.8603 64.9993 16.114 64.2094 16.114C63.853 16.114 63.3617 16.0996 62.7355 16.0708C62.7668 15.3468 62.7826 14.5305 62.7826 13.6224C62.7826 12.7502 62.7668 12.0058 62.7355 11.3896H63.3677C63.4713 11.3896 63.6253 11.3859 63.8301 11.3789C64.0346 11.3718 64.1684 11.3682 64.2309 11.3682C65.1002 11.3682 65.7304 11.584 66.1222 12.0155C66.5136 12.4469 66.7093 12.9644 66.7093 13.5685ZM65.7233 13.7231C65.7233 13.2629 65.5885 12.8753 65.3188 12.5597C65.0491 12.2447 64.6371 12.0871 64.0833 12.0871C63.9797 12.0871 63.8378 12.0978 63.6569 12.1196C63.6808 12.5992 63.6929 13.0999 63.6929 13.6224C63.6929 14.1954 63.705 14.7634 63.7288 15.3267C63.8834 15.3577 64.0406 15.3734 64.1983 15.3736C64.7161 15.3736 65.0995 15.2133 65.3487 14.8933C65.5979 14.5733 65.7233 14.1833 65.7233 13.7231ZM71.5373 16.0711H70.4679C70.1885 15.2226 69.9743 14.6988 69.825 14.5C69.6757 14.3008 69.4349 14.2014 69.1026 14.2014C68.9627 14.2014 68.8292 14.2028 68.7018 14.2051C68.7018 14.8213 68.7125 15.4432 68.7344 16.0711H67.7303C67.7615 15.3471 67.7774 14.5308 67.7774 13.6227C67.7774 12.7505 67.7616 12.0061 67.7303 11.3899H68.3551C68.4274 11.3899 68.5784 11.3862 68.8084 11.3792C69.0384 11.3722 69.2509 11.3685 69.446 11.3685C70.5513 11.3685 71.1042 11.7447 71.1042 12.4974C71.1042 13.0942 70.7887 13.5099 70.1579 13.7452V13.7991C70.401 13.8661 70.6142 14.0552 70.7971 14.3651C70.9797 14.6754 71.2266 15.244 71.5373 16.0711ZM70.1827 12.7632C70.1827 12.2862 69.8744 12.0476 69.258 12.0476C69.0317 12.0476 68.8315 12.0643 68.6584 12.0978C68.685 12.4693 68.6981 12.9537 68.6981 13.5504C68.8306 13.5555 68.9426 13.5575 69.034 13.5575C69.7997 13.5578 70.1827 13.293 70.1827 12.7632ZM76.7153 13.6441C76.7153 14.3798 76.4889 14.99 76.036 15.4743C75.583 15.9583 75.0231 16.2006 74.3563 16.2006C73.7204 16.2006 73.1881 15.9784 72.7596 15.5335C72.3309 15.089 72.1167 14.5238 72.1167 13.8386C72.1167 13.1029 72.343 12.4927 72.796 12.0084C73.2486 11.5244 73.8085 11.2821 74.4756 11.2821C75.1116 11.2821 75.6436 11.5037 76.0723 11.9472C76.5011 12.3907 76.7153 12.956 76.7153 13.6441ZM75.7186 13.7482C75.7186 13.2472 75.5897 12.8409 75.3322 12.5292C75.0743 12.2176 74.7565 12.062 74.3785 12.062C74.0267 12.062 73.7281 12.219 73.4826 12.5329C73.2372 12.8469 73.1137 13.2435 73.1137 13.7231C73.1137 14.2215 73.2432 14.6272 73.5021 14.9402C73.7611 15.2531 74.0782 15.4094 74.4542 15.4094C74.8056 15.4094 75.1045 15.2518 75.35 14.9365C75.5955 14.6215 75.7186 14.2252 75.7186 13.7482ZM78.7579 16.0711H77.7356C77.7668 15.3281 77.7826 14.512 77.7826 13.6227C77.7826 12.7478 77.7669 12.0034 77.7356 11.3899H78.7579C78.7266 11.9941 78.7108 12.7381 78.7108 13.6227C78.7108 14.5261 78.7266 15.3425 78.7579 16.0711ZM83.9937 13.5685C83.9937 14.2493 83.7745 14.8438 83.3363 15.3518C82.8978 15.8603 82.2837 16.114 81.4938 16.114C81.1374 16.114 80.6461 16.0996 80.0199 16.0708C80.0512 15.3468 80.067 14.5305 80.067 13.6224C80.067 12.7502 80.0512 12.0058 80.0199 11.3896H80.6521C80.7557 11.3896 80.9097 11.3859 81.1145 11.3789C81.319 11.3718 81.4528 11.3682 81.5154 11.3682C82.3846 11.3682 83.0148 11.584 83.4066 12.0155C83.798 12.4469 83.9937 12.9644 83.9937 13.5685ZM83.0077 13.7231C83.0077 13.2629 82.8729 12.8753 82.6032 12.5597C82.3335 12.2447 81.9216 12.0871 81.3677 12.0871C81.2641 12.0871 81.1222 12.0978 80.9413 12.1196C80.9652 12.5992 80.9772 13.0999 80.9772 13.6224C80.9772 14.1954 80.9894 14.7634 81.0132 15.3267C81.1678 15.3577 81.325 15.3734 81.4827 15.3736C82.0005 15.3736 82.3839 15.2133 82.6331 14.8933C82.8823 14.5733 83.0077 14.1833 83.0077 13.7231ZM90.9399 16.0711H89.7838C89.7838 15.9128 89.6741 15.4646 89.4546 14.7263H87.7856C87.5593 15.4526 87.4459 15.9007 87.4459 16.0711H86.3591C86.3591 15.9777 86.6402 15.2105 87.2025 13.77C87.7647 12.3294 88.0459 11.5358 88.0459 11.3899H89.4115C89.4115 11.5265 89.6664 12.3083 90.1755 13.7359C90.6847 15.1634 90.9399 15.9416 90.9399 16.0711ZM89.2709 14.0394C88.859 12.8027 88.6528 12.134 88.6528 12.0332H88.595C88.595 12.1266 88.3821 12.7953 87.9561 14.0394H89.2709ZM95.1535 12.6156C95.1535 13.1886 94.9396 13.6117 94.5122 13.8848C94.0847 14.1579 93.5605 14.2948 92.939 14.2948C92.8257 14.2948 92.7453 14.2924 92.6969 14.2878C92.6969 14.7386 92.71 15.3327 92.7366 16.0711H91.7213C91.7526 15.3786 91.7684 14.5622 91.7684 13.6227C91.7684 12.7599 91.7527 12.0155 91.7213 11.3899H92.3499C92.439 11.3899 92.6098 11.3862 92.8627 11.3792C93.1156 11.3722 93.3345 11.3685 93.5201 11.3685C93.9774 11.3685 94.3642 11.4715 94.6796 11.6777C94.995 11.8839 95.1535 12.1962 95.1535 12.6156ZM94.2216 12.8134C94.2216 12.3006 93.8796 12.0439 93.1957 12.0439C93.0245 12.0439 92.8439 12.062 92.6539 12.0978C92.6805 12.551 92.6936 13.0638 92.6936 13.6368C92.7538 13.6418 92.8237 13.6438 92.9031 13.6438C93.7821 13.6441 94.2216 13.3674 94.2216 12.8134ZM99.4861 12.6156C99.4861 13.1886 99.2722 13.6117 98.8451 13.8848C98.4177 14.1579 97.8931 14.2948 97.2717 14.2948C97.1584 14.2948 97.078 14.2924 97.0296 14.2878C97.0296 14.7386 97.0427 15.3327 97.0692 16.0711H96.054C96.0853 15.3786 96.1011 14.5622 96.1011 13.6227C96.1011 12.7599 96.0853 12.0155 96.054 11.3899H96.6825C96.7717 11.3899 96.9425 11.3862 97.1953 11.3792C97.4482 11.3722 97.6672 11.3685 97.8528 11.3685C98.3101 11.3685 98.6968 11.4715 99.0123 11.6777C99.3277 11.8839 99.4861 12.1962 99.4861 12.6156ZM98.5543 12.8134C98.5543 12.3006 98.2123 12.0439 97.5283 12.0439C97.3571 12.0439 97.1765 12.062 96.9865 12.0978C97.0131 12.551 97.0262 13.0638 97.0262 13.6368C97.0864 13.6418 97.1564 13.6438 97.2357 13.6438C98.1147 13.6441 98.5543 13.3674 98.5543 12.8134ZM106.57 13.6441C106.57 14.3798 106.343 14.99 105.891 15.4743C105.438 15.9586 104.878 16.2006 104.211 16.2006C103.575 16.2006 103.043 15.9784 102.614 15.5335C102.186 15.089 101.971 14.5238 101.971 13.8386C101.971 13.1029 102.198 12.4927 102.65 12.0084C103.103 11.5241 103.663 11.2821 104.33 11.2821C104.966 11.2821 105.498 11.5037 105.927 11.9472C106.355 12.3907 106.57 12.956 106.57 13.6441ZM105.573 13.7482C105.573 13.2472 105.444 12.8409 105.186 12.5292C104.929 12.2176 104.611 12.062 104.233 12.062C103.881 12.062 103.582 12.219 103.337 12.5329C103.091 12.8469 102.968 13.2435 102.968 13.7231C102.968 14.2215 103.098 14.6272 103.357 14.9402C103.616 15.2531 103.933 15.4094 104.308 15.4094C104.66 15.4094 104.959 15.2518 105.204 14.9365C105.45 14.6215 105.573 14.2252 105.573 13.7482ZM111.466 16.0711H110.574C110.574 15.9727 110.243 15.4539 109.581 14.5144C108.887 13.5243 108.492 12.8476 108.396 12.4831H108.338C108.398 13.0079 108.428 13.4825 108.428 13.9069C108.428 14.499 108.445 15.2206 108.479 16.0715H107.59C107.626 15.3284 107.644 14.5124 107.644 13.6231C107.644 12.7482 107.626 12.0038 107.59 11.3903H108.663C108.663 11.5175 108.96 12.0245 109.555 12.9112C110.189 13.853 110.552 14.492 110.646 14.8277H110.7C110.642 14.2932 110.613 13.8138 110.613 13.3895C110.613 12.7402 110.596 12.0734 110.563 11.3903H111.466C111.432 11.9847 111.416 12.7291 111.416 13.6231C111.416 14.5238 111.432 15.3398 111.466 16.0711Z" fill="black"/>
</g>
<defs>
<linearGradient id="paint0_linear_224_248" x1="22.5078" y1="10.7815" x2="22.5078" y2="48.7047" gradientUnits="userSpaceOnUse">
<stop stop-color="#257CB0"/>
<stop offset="0.286" stop-color="#4A93B5"/>
<stop offset="0.767" stop-color="#78BCBB"/>
<stop offset="1" stop-color="#89CFBD"/>
</linearGradient>
<linearGradient id="paint1_linear_224_248" x1="12.9017" y1="20.1931" x2="37.2748" y2="20.1931" gradientUnits="userSpaceOnUse">
<stop stop-color="#52C1AD"/>
<stop offset="1" stop-color="#DEE89A"/>
</linearGradient>
<linearGradient id="paint2_linear_224_248" x1="25.0878" y1="29.7433" x2="25.0878" y2="48.8427" gradientUnits="userSpaceOnUse">
<stop stop-color="#EC413D"/>
<stop offset="0.167" stop-color="#DA4452"/>
<stop offset="0.575" stop-color="#B0487A"/>
<stop offset="0.862" stop-color="#954A92"/>
<stop offset="1" stop-color="#8A4A9D"/>
</linearGradient>
<linearGradient id="paint3_linear_224_248" x1="39.126" y1="24.65" x2="39.126" y2="34.8354" gradientUnits="userSpaceOnUse">
<stop stop-color="#F58879"/>
<stop offset="0.119" stop-color="#F69079"/>
<stop offset="0.713" stop-color="#FCB877"/>
<stop offset="1" stop-color="#FEC874"/>
</linearGradient>
<clipPath id="clip0_224_248">
<rect width="172" height="56" fill="white" transform="translate(0 0.000244141)"/>
</clipPath>
</defs>
</svg>
