<svg width="116" height="40" viewBox="0 0 116 40" fill="none" xmlns="http://www.w3.org/2000/svg">
<path d="M19.711 11.854V28H15.778V18.317L12.167 28H8.993L5.359 18.294V28H1.426V11.854H6.072L10.603 23.032L15.088 11.854H19.711ZM26.8723 11.854V28H22.9393V11.854H26.8723ZM34.0555 24.964H39.2075V28H30.1225V11.854H34.0555V24.964ZM51.5344 25.148H45.5084L44.5424 28H40.4254L46.2674 11.854H50.8214L56.6634 28H52.5004L51.5344 25.148ZM50.5224 22.112L48.5214 16.201L46.5434 22.112H50.5224ZM73.2854 28H69.3524L62.7744 18.041V28H58.8414V11.854H62.7744L69.3524 21.859V11.854H73.2854V28ZM82.5854 11.854C84.2874 11.854 85.7747 12.1913 87.0474 12.866C88.32 13.5407 89.3014 14.4913 89.9914 15.718C90.6967 16.9293 91.0494 18.3323 91.0494 19.927C91.0494 21.5063 90.6967 22.9093 89.9914 24.136C89.3014 25.3627 88.3124 26.3133 87.0244 26.988C85.7517 27.6627 84.272 28 82.5854 28H76.5364V11.854H82.5854ZM82.3324 24.596C83.8197 24.596 84.9774 24.1897 85.8054 23.377C86.6334 22.5643 87.0474 21.4143 87.0474 19.927C87.0474 18.4397 86.6334 17.282 85.8054 16.454C84.9774 15.626 83.8197 15.212 82.3324 15.212H80.4694V24.596H82.3324ZM97.5803 11.854V28H93.6473V11.854H97.5803Z" fill="#0D0D0D"/>
</svg>
